<?xml version="1.0" encoding="utf-8"?>
<!-- Generator: Adobe Illustrator 18.1.1, SVG Export Plug-In . SVG Version: 6.00 Build 0)  -->
<svg version="1.1" id="Capa_1" xmlns="http://www.w3.org/2000/svg" xmlns:xlink="http://www.w3.org/1999/xlink" x="0px" y="0px"
	 viewBox="0 0 506 161" enable-background="new 0 0 506 161" xml:space="preserve">
<g>
	<g>
		<g>
			<path fill="#0290BF" d="M478.8,112.4c-11.6,0-21-9.4-21-21s9.4-21,21-21c11.6,0,21,9.4,21,21S490.4,112.4,478.8,112.4z
				 M478.8,72.8c-10.3,0-18.6,8.4-18.6,18.6c0,10.3,8.4,18.6,18.6,18.6c10.3,0,18.6-8.4,18.6-18.6C497.4,81.1,489,72.8,478.8,72.8z"
				/>
		</g>
		<g>
			<path fill="#0290BF" d="M465.6,87.6h0.1l3.1,6.9h-1.5l-0.4-0.9h-2.7l-0.4,0.9h-1.4L465.6,87.6z M466.5,92.4l-0.4-1
				c-0.2-0.5-0.4-1.2-0.4-1.2c0,0-0.2,0.7-0.4,1.2l-0.4,1H466.5z"/>
			<path fill="#0290BF" d="M473.7,91.3c-0.3-0.3-0.8-0.9-0.8-0.9s0.1,0.8,0.1,1.3v2.9h-1.3v-6.9h0.1l3.5,3.2
				c0.3,0.3,0.8,0.9,0.8,0.9s-0.1-0.8-0.1-1.3v-2.9h1.3v6.9h-0.1L473.7,91.3z M472.6,86.9c0.1-0.9,0.6-1.4,1.2-1.4
				c0.3,0,0.6,0.1,0.7,0.2c0.3,0.1,0.4,0.3,0.6,0.3c0.2,0,0.3-0.2,0.3-0.5l1,0.1c-0.1,0.9-0.6,1.4-1.2,1.4c-0.3,0-0.6-0.1-0.7-0.2
				c-0.3-0.1-0.4-0.3-0.6-0.3c-0.2,0-0.3,0.2-0.3,0.5L472.6,86.9z"/>
			<path fill="#0290BF" d="M480.3,91.1c0-2,1.6-3.5,3.6-3.5c2,0,3.6,1.5,3.6,3.5s-1.6,3.5-3.6,3.5C481.8,94.6,480.3,93.1,480.3,91.1
				z M485.9,91.1c0-1.3-0.8-2.3-2.1-2.3c-1.3,0-2.1,1-2.1,2.3c0,1.3,0.8,2.3,2.1,2.3C485.1,93.3,485.9,92.4,485.9,91.1z"/>
			<path fill="#0290BF" d="M489.7,93.2l1.2-0.7c0.3,0.5,0.7,0.9,1.4,0.9c0.6,0,1-0.3,1-0.7c0-0.5-0.4-0.7-1-0.9l-0.4-0.2
				c-1-0.4-1.7-1-1.7-2.1c0-1.1,0.8-1.9,2.1-1.9c0.9,0,1.5,0.3,2,1.1l-1.1,0.7c-0.2-0.4-0.5-0.6-0.9-0.6c-0.4,0-0.7,0.3-0.7,0.6
				c0,0.4,0.3,0.6,0.9,0.9l0.4,0.2c1.2,0.5,1.9,1,1.9,2.2c0,1.3-1,2-2.3,2C491,94.6,490.2,94,489.7,93.2z"/>
		</g>
		<path fill="#0290BF" d="M438.1,98.7l20.8-27.9h-42.2l2,2.4h35.4L433.4,101h2.4c15.7,0,26.7,11,26.7,26.7c0,14.7-12,26.7-26.7,26.7
			c-12.7,0-23.4-9-26-20.9h-2.4c2.7,13.3,14.4,23.3,28.5,23.3c16,0,29-13,29-29C464.8,111.3,453.9,99.7,438.1,98.7z"/>
	</g>
	<g>
		<g>
			<path fill="#FFFFFF" d="M166.6,82.9h-14.3v8.8h13.1l-0.7,7.1h-12.5V114h-9.4V75.7h24.3L166.6,82.9z"/>
			<path fill="#FFFFFF" d="M172.4,114V87.8l9.2-0.4V114H172.4z M172.5,83.5v-7.8h8.8v7.8H172.5z"/>
			<path fill="#FFFFFF" d="M203.1,114V96.6c0-0.4,0-0.7-0.1-0.9c-0.1-0.2-0.1-0.4-0.3-0.6c-0.1-0.1-0.3-0.2-0.5-0.3
				c-0.2-0.1-0.5-0.1-0.8-0.1c-0.6,0-1.2,0.2-1.9,0.6c-0.7,0.4-1.4,0.9-2.2,1.6V114h-9.3V87.6l8.2-0.4c0.1,0.2,0.2,0.4,0.2,0.7
				c0.1,0.3,0.1,0.6,0.2,0.9c0.1,0.3,0.1,0.6,0.2,1c0.1,0.3,0.1,0.7,0.2,1c0.6-0.6,1.3-1.1,2-1.6c0.7-0.5,1.4-0.9,2.1-1.2
				c0.7-0.3,1.4-0.6,2.2-0.8c0.7-0.2,1.4-0.3,2.1-0.3c1.3,0,2.3,0.2,3.2,0.5c0.9,0.3,1.6,0.8,2.2,1.4c0.6,0.6,1,1.4,1.2,2.4
				c0.3,1,0.4,2.1,0.4,3.4V114H203.1z"/>
			<path fill="#FFFFFF" d="M218.9,114V87.8l9.2-0.4V114H218.9z M219,83.5v-7.8h8.8v7.8H219z"/>
			<path fill="#FFFFFF" d="M255,105.4c0,1.4-0.2,2.6-0.7,3.7c-0.5,1.1-1.2,2.1-2.2,2.9c-1,0.8-2.2,1.4-3.6,1.9s-3.1,0.7-5,0.7
				c-1.9,0-3.7-0.2-5.5-0.5c-1.7-0.3-3.4-0.8-5.1-1.5l1.5-6.6c0.7,0.3,1.5,0.6,2.4,0.8c0.9,0.2,1.7,0.5,2.6,0.6
				c0.9,0.2,1.7,0.3,2.5,0.4c0.8,0.1,1.5,0.1,2.1,0.1c0.9,0,1.5-0.1,1.9-0.4c0.4-0.2,0.6-0.6,0.6-1c0-0.2,0-0.4-0.1-0.5
				c-0.1-0.2-0.2-0.3-0.3-0.5c-0.2-0.2-0.4-0.3-0.7-0.5c-0.3-0.1-0.7-0.3-1.3-0.4c-1.5-0.3-2.7-0.7-3.8-1.1c-1.1-0.4-2-0.8-2.7-1.2
				c-0.8-0.4-1.4-0.9-1.8-1.3c-0.5-0.5-0.8-1-1.1-1.5c-0.3-0.5-0.4-1.1-0.5-1.7c-0.1-0.6-0.1-1.2-0.1-1.9c0-1,0.1-1.8,0.4-2.7
				c0.3-0.8,0.6-1.6,1.1-2.2c0.5-0.7,1-1.3,1.7-1.8c0.6-0.5,1.4-1,2.1-1.3c0.8-0.4,1.6-0.6,2.5-0.8c0.9-0.2,1.9-0.3,2.8-0.3
				c0.8,0,1.6,0,2.4,0.1c0.8,0.1,1.6,0.2,2.5,0.3c0.8,0.2,1.7,0.4,2.5,0.7c0.9,0.3,1.7,0.6,2.7,1.1l-2.1,6.4
				c-0.5-0.2-1.1-0.5-1.8-0.7c-0.7-0.2-1.4-0.4-2.1-0.5c-0.7-0.1-1.4-0.3-2-0.3c-0.6-0.1-1.2-0.1-1.6-0.1c-0.8,0-1.3,0.1-1.7,0.4
				c-0.4,0.2-0.5,0.6-0.5,1c0,0.2,0,0.5,0.1,0.7c0.1,0.2,0.3,0.4,0.6,0.6c0.3,0.2,0.7,0.4,1.2,0.6c0.5,0.2,1.2,0.4,2.1,0.7
				c1.6,0.4,2.9,0.9,4,1.4c1.1,0.5,1.9,1.1,2.5,1.7c0.6,0.6,1.1,1.3,1.3,2.1C254.9,103.5,255,104.4,255,105.4z"/>
			<path fill="#FFFFFF" d="M300.1,82.9h-10V114h-9.6V82.9h-10.5l0.6-7.2h30.1L300.1,82.9z"/>
			<path fill="#FFFFFF" d="M319.2,112.7c-0.9,0.3-1.8,0.6-2.8,0.9c-1,0.2-2,0.4-3.1,0.6c-1.1,0.1-2.2,0.2-3.3,0.2
				c-2.2,0-4-0.2-5.6-0.7c-1.6-0.5-2.9-1.2-4-2.3c-1.1-1-1.9-2.4-2.4-4c-0.5-1.6-0.8-3.5-0.8-5.8c0-2.4,0.3-4.6,1-6.4
				c0.6-1.8,1.6-3.4,2.7-4.6s2.6-2.1,4.3-2.8s3.6-0.9,5.6-0.9c1.9,0,3.4,0.3,4.8,0.8c1.3,0.6,2.4,1.4,3.3,2.5
				c0.9,1.1,1.5,2.4,1.9,3.9c0.4,1.6,0.6,3.3,0.6,5.3c0,0.2,0,0.4,0,0.7c0,0.3,0,0.7-0.1,1s-0.1,0.8-0.1,1.1s-0.1,0.7-0.1,1h-14.6
				c0.2,1.5,0.7,2.6,1.6,3.3c0.9,0.7,2.1,1,3.7,1c0.7,0,1.4-0.1,2.2-0.2c0.7-0.1,1.4-0.2,2.2-0.4c0.7-0.2,1.4-0.4,2.1-0.6
				c0.7-0.2,1.3-0.5,1.9-0.7l1.9,5.7C320.9,112,320.1,112.4,319.2,112.7z M313.3,98.1c0-1.5-0.3-2.6-0.8-3.4
				c-0.5-0.8-1.3-1.1-2.2-1.1c-1.3,0-2.2,0.4-2.9,1.2c-0.6,0.8-1,2-1.1,3.6h6.9V98.1z"/>
			<path fill="#FFFFFF" d="M343.2,95.7c-0.6-0.1-1-0.1-1.4-0.2c-0.4,0-0.8-0.1-1.2-0.1c-0.5,0-0.9,0-1.3,0.1c-0.4,0.1-0.7,0.2-1,0.4
				c-0.3,0.2-0.6,0.5-1,0.8c-0.3,0.3-0.7,0.8-1.2,1.3V114h-9.2V87.6l7.4-0.4c0.1,0.2,0.2,0.5,0.3,0.8c0.1,0.3,0.2,0.7,0.2,1.1
				c0.1,0.4,0.1,0.8,0.2,1.3c0.1,0.4,0.1,0.9,0.1,1.3c0.5-0.9,0.9-1.7,1.3-2.3c0.4-0.6,0.8-1,1.3-1.4c0.4-0.3,0.9-0.5,1.3-0.7
				c0.5-0.1,1-0.2,1.5-0.2c0.6,0,1.2,0,1.9,0.1c0.6,0.1,1.2,0.2,1.7,0.4L343.2,95.7z"/>
			<path fill="#FFFFFF" d="M364.1,95.7c-0.6-0.1-1-0.1-1.4-0.2c-0.4,0-0.8-0.1-1.2-0.1c-0.5,0-0.9,0-1.3,0.1c-0.4,0.1-0.7,0.2-1,0.4
				c-0.3,0.2-0.6,0.5-1,0.8c-0.3,0.3-0.7,0.8-1.2,1.3V114h-9.2V87.6l7.4-0.4c0.1,0.2,0.2,0.5,0.3,0.8c0.1,0.3,0.2,0.7,0.2,1.1
				c0.1,0.4,0.1,0.8,0.2,1.3c0.1,0.4,0.1,0.9,0.1,1.3c0.5-0.9,0.9-1.7,1.3-2.3c0.4-0.6,0.8-1,1.3-1.4s0.9-0.5,1.3-0.7
				c0.5-0.1,1-0.2,1.5-0.2c0.6,0,1.2,0,1.9,0.1c0.6,0.1,1.2,0.2,1.7,0.4L364.1,95.7z"/>
			<path fill="#FFFFFF" d="M382.5,111.2c-0.5,0.6-1.1,1.1-1.6,1.5c-0.6,0.4-1.1,0.7-1.7,1c-0.6,0.2-1.3,0.4-1.9,0.5
				c-0.7,0.1-1.4,0.2-2.2,0.2c-1,0-2-0.2-3-0.6c-0.9-0.4-1.7-0.9-2.4-1.7c-0.7-0.7-1.2-1.6-1.6-2.6c-0.4-1-0.6-2.2-0.6-3.5
				c0-0.6,0.1-1.3,0.2-1.8c0.1-0.6,0.4-1.1,0.8-1.6c0.4-0.5,0.9-1,1.6-1.4s1.6-0.8,2.7-1.1c1.1-0.3,2.4-0.6,4-0.9
				c1.6-0.3,3.4-0.5,5.5-0.6V96c0-0.4,0-0.8-0.1-1.1c-0.1-0.3-0.2-0.5-0.3-0.7c-0.1-0.2-0.3-0.3-0.6-0.4c-0.2-0.1-0.5-0.1-0.9-0.1
				c-0.7,0-1.4,0.1-2.1,0.2c-0.7,0.1-1.5,0.3-2.2,0.6c-0.7,0.3-1.5,0.6-2.2,0.9c-0.7,0.4-1.4,0.8-2.1,1.2l-3.4-5.5
				c1-0.7,2.1-1.4,3.1-1.9c1.1-0.6,2.2-1,3.4-1.4c1.2-0.4,2.4-0.6,3.7-0.8c1.3-0.2,2.7-0.3,4.1-0.3c1.7,0,3.1,0.2,4.2,0.6
				c1.1,0.4,2,1,2.7,1.7c0.7,0.7,1.2,1.6,1.5,2.7c0.3,1,0.5,2.2,0.5,3.5v11.1c0,0.2,0,0.3,0.1,0.4c0.1,0.1,0.2,0.2,0.4,0.3
				c0.2,0.1,0.5,0.2,0.9,0.3c0.4,0.1,0.9,0.2,1.4,0.3l-1.5,6.6c-0.5,0-1,0.1-1.4,0.1c-0.4,0-0.8,0-1.2,0c-1.3,0-2.3-0.1-3.2-0.2
				c-0.9-0.1-1.6-0.3-2.2-0.6c-0.6-0.3-1.1-0.6-1.4-1C383,112.2,382.7,111.7,382.5,111.2z M379.7,103.4c-0.7,0.1-1.2,0.2-1.7,0.3
				c-0.4,0.1-0.8,0.2-1.1,0.4c-0.3,0.1-0.5,0.3-0.6,0.5s-0.2,0.4-0.3,0.6c0,0.2-0.1,0.4-0.1,0.7c0,0.4,0.1,0.8,0.2,1.1
				c0.1,0.3,0.3,0.6,0.5,0.9c0.2,0.2,0.5,0.4,0.8,0.6c0.3,0.1,0.6,0.2,1,0.2c0.4,0,0.8,0,1.1-0.1c0.4-0.1,0.7-0.2,1-0.3
				c0.3-0.1,0.6-0.3,0.8-0.5c0.3-0.2,0.5-0.3,0.7-0.5v-4C381.2,103.2,380.4,103.3,379.7,103.4z"/>
			<path fill="#FFFFFF" d="M419.4,112.7c-0.9,0.3-1.8,0.6-2.8,0.9c-1,0.2-2,0.4-3.1,0.6c-1.1,0.1-2.2,0.2-3.3,0.2
				c-2.2,0-4-0.2-5.6-0.7c-1.6-0.5-2.9-1.2-4-2.3c-1.1-1-1.9-2.4-2.4-4c-0.5-1.6-0.8-3.5-0.8-5.8c0-2.4,0.3-4.6,1-6.4
				c0.6-1.8,1.6-3.4,2.7-4.6s2.6-2.1,4.3-2.8c1.7-0.6,3.6-0.9,5.6-0.9c1.9,0,3.4,0.3,4.8,0.8c1.3,0.6,2.4,1.4,3.3,2.5
				c0.9,1.1,1.5,2.4,1.9,3.9c0.4,1.6,0.6,3.3,0.6,5.3c0,0.2,0,0.4,0,0.7c0,0.3,0,0.7-0.1,1c0,0.4-0.1,0.8-0.1,1.1
				c0,0.4-0.1,0.7-0.1,1h-14.6c0.2,1.5,0.7,2.6,1.6,3.3c0.9,0.7,2.1,1,3.7,1c0.7,0,1.4-0.1,2.2-0.2c0.7-0.1,1.4-0.2,2.2-0.4
				c0.7-0.2,1.4-0.4,2.1-0.6c0.7-0.2,1.3-0.5,1.9-0.7l1.9,5.7C421.2,112,420.3,112.4,419.4,112.7z M413.5,98.1
				c0-1.5-0.3-2.6-0.8-3.4c-0.5-0.8-1.3-1.1-2.2-1.1c-1.3,0-2.2,0.4-2.9,1.2c-0.6,0.8-1,2-1.1,3.6h6.9V98.1z"/>
		</g>
		<g>
			<path fill="#FFFFFF" d="M153.7,61.2c-0.2,0.7-0.6,1.3-1.1,1.8c-0.5,0.5-1.1,0.9-1.8,1.2c-0.7,0.3-1.6,0.4-2.6,0.4
				c-1,0-1.8-0.1-2.5-0.3c-0.7-0.2-1.3-0.6-1.7-1c-0.4-0.5-0.8-1-1-1.7c-0.2-0.7-0.3-1.5-0.3-2.4v-8.7h2.6v8.7
				c0,0.6,0.1,1.1,0.2,1.6c0.1,0.4,0.3,0.8,0.5,1.1c0.2,0.3,0.6,0.5,0.9,0.6c0.4,0.1,0.9,0.2,1.4,0.2c0.6,0,1.1-0.1,1.5-0.2
				s0.7-0.4,1-0.7c0.2-0.3,0.4-0.7,0.5-1.1c0.1-0.4,0.2-1,0.2-1.6v-8.6h2.5v8.6C154.1,59.8,153.9,60.5,153.7,61.2z"/>
			<path fill="#FFFFFF" d="M169.1,64.5l-6.6-9c-0.1-0.2-0.2-0.3-0.3-0.5c-0.1-0.1-0.2-0.3-0.2-0.4v9.9h-2.4V50.4h2.2l6.5,9.2
				c0.2,0.2,0.3,0.4,0.4,0.6c0.1,0.1,0.2,0.3,0.2,0.4V50.4h2.4v14.1H169.1z"/>
			<path fill="#FFFFFF" d="M183.2,52.1l-2,0.1v10.4l2,0.1v1.7h-6.6v-1.7l2-0.1V52.2l-1.9-0.1v-1.8h6.5V52.1z"/>
			<path fill="#FFFFFF" d="M196.9,50.4h2.5l-5.3,14.1h-2.4L187,50.4h2.9l3.1,10c0,0.2,0.1,0.4,0.1,0.6c0,0.2,0,0.4,0,0.5
				c0-0.1,0-0.3,0.1-0.5c0-0.2,0.1-0.4,0.1-0.6L196.9,50.4z"/>
			<path fill="#FFFFFF" d="M203.6,64.5V50.4h8.9l-0.2,2h-6.1v3.9h5.5v2h-5.5v4.3h6.2l0.2,2H203.6z"/>
			<path fill="#FFFFFF" d="M224.8,64.5l-2.7-5.3h-2v5.3h-2.6V50.4h4.4c0.8,0,1.6,0.1,2.2,0.2c0.6,0.2,1.1,0.4,1.5,0.7
				s0.7,0.7,0.9,1.2c0.2,0.5,0.3,1.1,0.3,1.7c0,0.3,0,0.7-0.1,1c-0.1,0.3-0.2,0.7-0.4,1c-0.2,0.3-0.4,0.7-0.7,1
				c-0.3,0.4-0.6,0.7-1.1,1.1l3.3,6H224.8z M224.3,54.4c0-0.4,0-0.7-0.1-0.9c-0.1-0.3-0.3-0.5-0.5-0.7c-0.2-0.2-0.5-0.3-0.8-0.4
				c-0.3-0.1-0.7-0.1-1.2-0.1h-1.6v5h2.8c0.2-0.3,0.4-0.5,0.6-0.8s0.3-0.5,0.4-0.7c0.1-0.2,0.2-0.5,0.2-0.7S224.3,54.6,224.3,54.4z"
				/>
			<path fill="#FFFFFF" d="M241.2,60.3c0,0.6-0.1,1.2-0.3,1.7c-0.2,0.5-0.6,1-1,1.4c-0.4,0.4-1,0.7-1.7,0.9
				c-0.7,0.2-1.4,0.3-2.3,0.3c-0.4,0-0.8,0-1.2-0.1s-0.7-0.1-1.1-0.2s-0.7-0.2-1-0.3c-0.3-0.1-0.7-0.3-1-0.4l0.7-2.1
				c0.3,0.1,0.6,0.2,0.9,0.4c0.3,0.1,0.7,0.2,1,0.3c0.3,0.1,0.7,0.1,1,0.2c0.3,0,0.7,0.1,1,0.1c0.4,0,0.8,0,1.1-0.1
				c0.3-0.1,0.6-0.2,0.8-0.4c0.2-0.1,0.4-0.3,0.5-0.5s0.2-0.4,0.2-0.7c0-0.3,0-0.5-0.1-0.7c-0.1-0.2-0.2-0.4-0.4-0.5
				c-0.2-0.2-0.4-0.3-0.8-0.5s-0.8-0.3-1.3-0.4c-0.5-0.1-0.9-0.3-1.3-0.4c-0.4-0.1-0.7-0.3-1-0.5s-0.6-0.4-0.8-0.6
				c-0.2-0.2-0.4-0.4-0.5-0.7s-0.2-0.6-0.3-0.9c-0.1-0.3-0.1-0.7-0.1-1.1c0-0.6,0.1-1.2,0.3-1.7c0.2-0.5,0.5-1,0.9-1.4
				c0.4-0.4,0.9-0.7,1.5-0.9c0.6-0.2,1.3-0.3,2.1-0.3c0.8,0,1.6,0.1,2.3,0.2s1.3,0.4,1.8,0.6l-0.6,2c-0.2-0.1-0.5-0.2-0.8-0.3
				c-0.3-0.1-0.6-0.2-0.9-0.2c-0.3-0.1-0.6-0.1-0.9-0.1c-0.3,0-0.5,0-0.8,0c-0.4,0-0.7,0-1,0.1s-0.5,0.2-0.7,0.3
				c-0.2,0.1-0.3,0.3-0.4,0.5c-0.1,0.2-0.1,0.5-0.1,0.8c0,0.2,0,0.5,0.1,0.7c0.1,0.2,0.2,0.4,0.3,0.5c0.2,0.2,0.4,0.3,0.7,0.5
				s0.7,0.3,1.2,0.4c0.6,0.2,1.1,0.3,1.5,0.5c0.4,0.2,0.8,0.4,1.1,0.5c0.3,0.2,0.6,0.4,0.8,0.6c0.2,0.2,0.4,0.4,0.5,0.7
				c0.1,0.2,0.2,0.5,0.3,0.8C241.2,59.7,241.2,60,241.2,60.3z"/>
			<path fill="#FFFFFF" d="M252.6,52.1l-2,0.1v10.4l2,0.1v1.7H246v-1.7l2-0.1V52.2l-1.9-0.1v-1.8h6.5V52.1z"/>
			<path fill="#FFFFFF" d="M269,57.1c0,1.2-0.1,2.2-0.4,3.1c-0.3,0.9-0.7,1.7-1.3,2.3c-0.6,0.6-1.3,1.1-2.1,1.4
				c-0.9,0.3-1.8,0.5-3,0.5h-4.4V50.4h4.8c0.7,0,1.3,0.1,1.9,0.2c0.6,0.1,1.1,0.3,1.6,0.5c0.5,0.2,0.9,0.5,1.3,0.9
				c0.4,0.4,0.7,0.8,0.9,1.3s0.4,1.1,0.6,1.7C269,55.5,269,56.3,269,57.1z M260.4,52.3v10.2h1.9c0.7,0,1.3-0.1,1.9-0.3
				c0.5-0.2,1-0.5,1.3-1c0.3-0.4,0.6-1,0.8-1.6c0.2-0.6,0.2-1.4,0.2-2.3c0-0.8-0.1-1.6-0.2-2.2c-0.2-0.6-0.4-1.1-0.7-1.5
				c-0.3-0.4-0.8-0.7-1.3-0.9c-0.5-0.2-1.2-0.3-1.9-0.3H260.4z"/>
			<path fill="#FFFFFF" d="M282.7,64.5l-1.3-3.8h-4.7l-1.4,3.8h-2.5l5.2-14.1h2.5l5,14.1H282.7z M277.2,59h3.6l-1.6-4.7
				c-0.1-0.2-0.1-0.4-0.1-0.6c0-0.2,0-0.4,0-0.5c0,0.1,0,0.3-0.1,0.5c0,0.2-0.1,0.4-0.2,0.6L277.2,59z"/>
			<path fill="#FFFFFF" d="M301.1,57.1c0,1.2-0.1,2.2-0.4,3.1c-0.3,0.9-0.7,1.7-1.3,2.3c-0.6,0.6-1.3,1.1-2.1,1.4
				c-0.9,0.3-1.8,0.5-3,0.5h-4.4V50.4h4.8c0.7,0,1.3,0.1,1.9,0.2c0.6,0.1,1.1,0.3,1.6,0.5c0.5,0.2,0.9,0.5,1.3,0.9
				c0.4,0.4,0.7,0.8,0.9,1.3s0.4,1.1,0.6,1.7C301,55.5,301.1,56.3,301.1,57.1z M292.4,52.3v10.2h1.9c0.7,0,1.3-0.1,1.9-0.3
				c0.5-0.2,1-0.5,1.3-1c0.3-0.4,0.6-1,0.8-1.6c0.2-0.6,0.2-1.4,0.2-2.3c0-0.8-0.1-1.6-0.2-2.2c-0.2-0.6-0.4-1.1-0.7-1.5
				c-0.3-0.4-0.8-0.7-1.3-0.9c-0.5-0.2-1.2-0.3-1.9-0.3H292.4z"/>
		</g>
		<path fill="#FFFFFF" d="M67.2,5.2C33.5,5.2,6,36.8,6,75.5c0,38.7,27.4,70.3,61.2,70.3c33.7,0,61.2-31.5,61.2-70.3
			C128.4,36.8,100.9,5.2,67.2,5.2 M67.2,144.7c-33.2,0-60.1-31.1-60.1-69.2c0-38.2,27-69.2,60.1-69.2c33.2,0,60.1,31.1,60.1,69.2
			C127.3,113.7,100.4,144.7,67.2,144.7"/>
		<path fill="#FFFFFF" d="M18.2,103.5c-0.4-0.8,0-1.8,0.8-2.2c0.8-0.4,1.8,0,2.1,0.8c0.4,0.8,0,1.8-0.8,2.2
			C19.5,104.7,18.5,104.3,18.2,103.5"/>
		<polygon fill="#FFFFFF" points="21.2,112.8 20.6,111.9 23.6,108 23.5,107.3 23.7,107.2 25.2,109.6 24.9,109.8 24.4,109.3 
			22.1,112.1 25.5,111.4 25.4,110.6 25.7,110.5 26.8,112.3 26.5,112.5 25.8,112 		"/>
		<polygon fill="#FFFFFF" points="25.2,118 24.9,118.2 23.2,115.8 23.5,115.7 24.1,116.2 27.3,113.8 27,113.1 27.3,112.9 29,115.3 
			28.7,115.4 28.1,114.9 24.9,117.3 		"/>
		<polygon fill="#FFFFFF" points="29.7,117.2 29.5,116.5 29.7,116.3 31.2,117.9 30.9,118.9 30,121.9 30.1,122 32.2,120.1 32,119.3 
			32.2,119.1 33.6,120.7 33.4,120.9 32.7,120.6 29.3,123.5 28.5,122.6 28.8,121.5 29.7,118.2 29.6,118.1 27.3,120.2 27.5,120.9 
			27.3,121.1 25.9,119.6 26.1,119.4 26.8,119.7 		"/>
		<path fill="#FFFFFF" d="M34.6,128.1c-0.5-0.2-1.1-0.5-1.6-0.9c-1.2-1.1-1.6-2.6-0.4-3.9c1.1-1.2,2.7-1.2,4-0.1
			c0.3,0.3,0.6,0.7,0.7,1l0.4-0.1l0.2,0.2l-1.2,1.5l-0.4-0.3c0.4-1.2,0.3-1.7-0.1-2.1c-0.5-0.5-1.4-0.4-2.4,0.7
			c-1.1,1.2-0.9,2.2-0.3,2.7c0.1,0.1,0.3,0.2,0.5,0.3l1.6-0.5l0.3,0.3L34.6,128.1z"/>
		<path fill="#FFFFFF" d="M41.7,129.6l-0.2-0.1l0-0.9c0-0.4-0.1-0.7-0.5-1l-0.7-0.5l-1,1.4l0.2,0.1c0.3,0.2,0.6,0.2,1,0l0.2-0.1
			l0.3,0.2l-1.2,1.6l-0.3-0.2l0-0.2c0.1-0.4,0-0.7-0.3-1l-0.2-0.1l-1.1,1.5l0.8,0.6c0.3,0.2,0.7,0.3,1,0.2l1-0.3l0.2,0.2l-1.1,1.3
			l-3.9-2.8l0.2-0.2l0.7,0.3l2.3-3.2l-0.5-0.6l0.2-0.3l3.7,2.7L41.7,129.6z"/>
		<polygon fill="#FFFFFF" points="46.6,135.7 46.5,136 43.9,134.7 44,134.4 44.8,134.6 46.6,131 46,130.5 46.1,130.2 48.7,131.5 
			48.6,131.8 47.8,131.6 46,135.2 		"/>
		<polygon fill="#FFFFFF" points="50.3,132.9 49.7,132.4 49.8,132.1 51.9,132.8 52.1,133.8 52.9,136.8 52.9,136.9 53.9,134.2 
			53.3,133.7 53.4,133.4 55.4,134.1 55.3,134.4 54.5,134.4 53,138.6 51.8,138.2 51.6,137.1 50.7,133.8 50.6,133.7 49.6,136.7 
			50.2,137.2 50.1,137.5 48.1,136.8 48.2,136.5 49,136.5 		"/>
		<path fill="#FFFFFF" d="M61.3,140.2l-3.1-0.4l0-0.3l0.7-0.1l0.5-4l-0.7-0.3l0-0.3l3,0.4c1.2,0.2,1.7,0.7,1.6,1.3
			c-0.1,0.6-0.6,0.9-1.5,1l0,0.1c1,0.2,1.5,0.7,1.4,1.4C63.3,139.9,62.5,140.4,61.3,140.2 M61,137.8l-0.4-0.1l-0.3,1.9
			c0.1,0,0.3,0.1,0.4,0.1c0.7,0.1,1.1-0.2,1.2-0.8C62,138.3,61.7,137.9,61,137.8 M61.1,137.4c0.6,0.1,1-0.3,1.1-0.8
			c0.1-0.6-0.3-0.9-0.9-1c-0.1,0-0.4,0-0.4,0l-0.2,1.7L61.1,137.4z"/>
		<path fill="#FFFFFF" d="M67.8,140.7c-1.9,0-2.7-1.2-2.8-2.6c0-1.4,0.9-2.7,2.7-2.7c1.9,0,2.7,1.2,2.7,2.6
			C70.5,139.4,69.6,140.7,67.8,140.7 M67.6,135.8c-0.6,0-1.1,0.6-1.1,2.2c0,1.7,0.6,2.2,1.3,2.2c0.6,0,1.1-0.8,1.1-2.2
			C68.9,136.5,68.4,135.8,67.6,135.8"/>
		<polygon fill="#FFFFFF" points="72.3,135.9 71.6,135.7 71.6,135.4 73.7,135 74.4,135.8 76.5,138.1 76.6,138 76.1,135.3 
			75.4,135.1 75.3,134.8 77.4,134.4 77.4,134.7 76.8,135.1 77.5,139.5 76.3,139.7 75.5,138.9 73.2,136.4 73.1,136.5 73.6,139.5 
			74.4,139.7 74.5,140 72.4,140.4 72.3,140.1 73,139.6 		"/>
		<path fill="#FFFFFF" d="M82.5,138.2c-1.8,0.6-3-0.3-3.4-1.7c-0.4-1.3,0-2.8,1.7-3.4c1.8-0.6,2.9,0.3,3.4,1.7
			C84.7,136.1,84.2,137.6,82.5,138.2 M80.9,133.6c-0.6,0.2-0.9,0.9-0.4,2.5c0.5,1.6,1.3,1.9,1.9,1.7c0.6-0.2,0.9-1.1,0.4-2.5
			C82.3,133.8,81.6,133.3,80.9,133.6"/>
		<polygon fill="#FFFFFF" points="95.7,131.1 95.8,131.3 93.6,132.7 93.4,132.4 93.8,132 91.9,128.8 91.8,128.9 92.8,133.2 
			92,133.7 88.5,130.8 88.4,130.9 90.3,134 91,133.9 91.2,134.2 89.5,135.2 89.3,134.9 89.7,134.3 87.7,131 87,131.2 86.9,130.9 
			89.2,129.5 89.8,130.1 91.9,131.9 91.9,131.8 91.3,129.2 91,128.4 93.2,127 93.4,127.3 92.9,127.9 95,131.3 		"/>
		<path fill="#FFFFFF" d="M97.6,129.2l0.7-0.2l0.2,0.2l-1.5,1.3l-0.2-0.2l0.3-0.7l-1.5-4.5l0.9-0.7l4.2,2.4l0.6-0.2l0.2,0.2l-2,1.7
			l-0.2-0.2l0.4-0.6l-0.9-0.5l-1.4,1.2L97.6,129.2z M96.4,125.8L96.4,125.8l0.6,2l1.1-0.9L96.4,125.8z"/>
		<path fill="#FFFFFF" d="M105.5,122.7l-3.1,3.2l-0.2-0.2l0.4-0.7l-2.9-2.8l-0.7,0.4l-0.2-0.2l2-2l0.2,0.2l-0.4,0.7l2.9,2.8l0.4-0.4
			c0.3-0.3,0.4-0.6,0.3-1.2l-0.2-1.1l0.2-0.2L105.5,122.7z"/>
		<polygon fill="#FFFFFF" points="108.3,119.3 107.7,120.1 103,118.7 102.4,119.1 102.2,118.9 104,116.7 104.2,116.8 103.9,117.5 
			107.4,118.7 105.6,115.8 104.8,116.1 104.6,115.9 105.9,114.2 106.2,114.4 106,115.2 		"/>
		<polygon fill="#FFFFFF" points="114.3,109.9 114.5,110 113.2,112.3 112.9,112.1 113,111.5 109.9,109.5 109.8,109.6 112.7,113 
			112.2,113.8 107.8,112.9 107.7,113 110.8,114.9 111.4,114.5 111.7,114.6 110.6,116.4 110.3,116.2 110.5,115.5 107.1,113.4 
			106.6,113.9 106.3,113.7 107.8,111.4 108.6,111.7 111.2,112.3 111.3,112.2 109.5,110.2 108.9,109.6 110.3,107.4 110.6,107.5 
			110.4,108.2 113.7,110.3 		"/>
		<path fill="#FFFFFF" d="M115.9,103.4c-0.4,0.8-1.3,1.2-2.2,0.8c-0.8-0.4-1.2-1.3-0.8-2.2c0.4-0.8,1.3-1.2,2.1-0.8
			C115.9,101.6,116.3,102.6,115.9,103.4"/>
		<path fill-rule="evenodd" clip-rule="evenodd" fill="#FFFFFF" d="M97,87.5h-2v-1.1H84.6v1.1h-1.9c-0.1,0.4-0.3,1.1-0.8,1.6
			c-0.5,0.5-1.1,0.8-1.8,0.8c0,1.2,0.1,4.1,1,7.3c1.3,4.3,3.5,7.5,6.6,9.3c-6.4-4.6-6.6-15.9-6.6-15.9c1.9,0,2.4-2.3,2.4-2.3h1.8
			v-1.1h4.6V88H91v4.4h4.7v2H91v11.1h-1.1v2c4.3-1.6,7.2-5,8.7-10.3c0.9-3.2,1-6.1,1-7.3C97.8,89.7,97.2,88.3,97,87.5"/>
		<polygon fill-rule="evenodd" clip-rule="evenodd" fill="#FFFFFF" points="88,91.5 83.5,91.5 83.5,95.2 88,95.2 88,105.2 89,105.2 
			89,94.4 84.3,94.4 84.3,92.4 89,92.4 89,88.1 88,88.1 		"/>
		<path fill-rule="evenodd" clip-rule="evenodd" fill="#FFFFFF" d="M34.7,36.4c-0.1,0.1-0.2,0.3-0.4,0.4l5.4,1.5L34.7,36.4z"/>
		<path fill-rule="evenodd" clip-rule="evenodd" fill="#FFFFFF" d="M33.2,38.2c-0.1,0.2-0.3,0.3-0.4,0.5l6.4,1.3L33.2,38.2z"/>
		<path fill-rule="evenodd" clip-rule="evenodd" fill="#FFFFFF" d="M31.8,40.1c-0.1,0.2-0.3,0.4-0.4,0.6l7.5,1.1L31.8,40.1z"/>
		<path fill-rule="evenodd" clip-rule="evenodd" fill="#FFFFFF" d="M36.2,34.7c-0.1,0.1-0.2,0.2-0.3,0.3l4.4,1.5L36.2,34.7z"/>
		<path fill-rule="evenodd" clip-rule="evenodd" fill="#FFFFFF" d="M30.4,42.2c-0.2,0.2-0.3,0.5-0.5,0.8l8.6,0.7L30.4,42.2z"/>
		<path fill-rule="evenodd" clip-rule="evenodd" fill="#FFFFFF" d="M39.3,31.7c-0.1,0.1-0.2,0.1-0.2,0.2l2.8,1.4L39.3,31.7z"/>
		<path fill-rule="evenodd" clip-rule="evenodd" fill="#FFFFFF" d="M21.8,64.2c-0.1,0.7-0.3,1.5-0.4,2.2l18.9-8.6L21.8,64.2z"/>
		<path fill-rule="evenodd" clip-rule="evenodd" fill="#FFFFFF" d="M23.3,57.7c-0.2,0.6-0.3,1.2-0.5,1.8l16.4-5.1L23.3,57.7z"/>
		<path fill-rule="evenodd" clip-rule="evenodd" fill="#FFFFFF" d="M22.5,60.9c-0.2,0.7-0.3,1.3-0.4,2l17.7-6.7L22.5,60.9z"/>
		<path fill-rule="evenodd" clip-rule="evenodd" fill="#FFFFFF" d="M21.2,67.7c-0.1,0.8-0.2,1.6-0.3,2.4l20.1-10.7L21.2,67.7z"/>
		<path fill-rule="evenodd" clip-rule="evenodd" fill="#FFFFFF" d="M24.3,54.7c-0.2,0.5-0.4,1-0.5,1.6l15.1-3.6L24.3,54.7z"/>
		<path fill-rule="evenodd" clip-rule="evenodd" fill="#FFFFFF" d="M27.7,46.7c-0.2,0.3-0.4,0.7-0.5,1l11.1-0.5L27.7,46.7z"/>
		<path fill-rule="evenodd" clip-rule="evenodd" fill="#FFFFFF" d="M26.5,49.2c-0.2,0.4-0.4,0.8-0.5,1.2L38.4,49L26.5,49.2z"/>
		<path fill-rule="evenodd" clip-rule="evenodd" fill="#FFFFFF" d="M25.3,51.9c-0.2,0.5-0.4,0.9-0.5,1.4l13.7-2.4L25.3,51.9z"/>
		<path fill-rule="evenodd" clip-rule="evenodd" fill="#FFFFFF" d="M29,44.4c-0.2,0.3-0.3,0.6-0.5,0.9l9.8,0.1L29,44.4z"/>
		<path fill-rule="evenodd" clip-rule="evenodd" fill="#FFFFFF" d="M105.9,45.2c-0.2-0.3-0.3-0.6-0.5-0.9l-9.3,1L105.9,45.2z"/>
		<path fill-rule="evenodd" clip-rule="evenodd" fill="#FFFFFF" d="M103.1,40.7c-0.1-0.2-0.3-0.4-0.4-0.6l-7,1.7L103.1,40.7z"/>
		<path fill-rule="evenodd" clip-rule="evenodd" fill="#FFFFFF" d="M104.5,42.9c-0.2-0.3-0.3-0.5-0.5-0.7l-8.1,1.4L104.5,42.9z"/>
		<path fill-rule="evenodd" clip-rule="evenodd" fill="#FFFFFF" d="M101.6,38.7c-0.1-0.2-0.3-0.3-0.4-0.5l-6,1.8L101.6,38.7z"/>
		<path fill-rule="evenodd" clip-rule="evenodd" fill="#FFFFFF" d="M100.1,36.8c-0.1-0.1-0.2-0.3-0.4-0.4l-5,1.9L100.1,36.8z"/>
		<path fill-rule="evenodd" clip-rule="evenodd" fill="#FFFFFF" d="M37.7,33.1c-0.1,0.1-0.2,0.2-0.3,0.3l3.6,1.5L37.7,33.1z"/>
		<path fill-rule="evenodd" clip-rule="evenodd" fill="#FFFFFF" d="M96.9,33.4c-0.1-0.1-0.2-0.2-0.3-0.3l-3.3,1.7L96.9,33.4z"/>
		<path fill-rule="evenodd" clip-rule="evenodd" fill="#FFFFFF" d="M20.9,71.4c-0.1,0.9-0.1,1.8-0.1,2.7l21.1-13L20.9,71.4z"/>
		<path fill-rule="evenodd" clip-rule="evenodd" fill="#FFFFFF" d="M98.5,35.1c-0.1-0.1-0.2-0.2-0.3-0.3l-4.1,1.9L98.5,35.1z"/>
		<path fill-rule="evenodd" clip-rule="evenodd" fill="#FFFFFF" d="M95.3,31.9c-0.1-0.1-0.2-0.1-0.2-0.2l-2.6,1.6L95.3,31.9z"/>
		<path fill-rule="evenodd" clip-rule="evenodd" fill="#FFFFFF" d="M113.7,74.1c0-0.9-0.1-1.8-0.1-2.7l-21-10.3L113.7,74.1z"/>
		<path fill-rule="evenodd" clip-rule="evenodd" fill="#FFFFFF" d="M108.4,50.4c-0.2-0.4-0.4-0.8-0.5-1.2L96.1,49L108.4,50.4z"/>
		<path fill-rule="evenodd" clip-rule="evenodd" fill="#FFFFFF" d="M109.6,53.2c-0.2-0.5-0.4-0.9-0.5-1.4l-13.2-1L109.6,53.2z"/>
		<path fill-rule="evenodd" clip-rule="evenodd" fill="#FFFFFF" d="M110.7,56.2c-0.2-0.5-0.3-1-0.5-1.6l-14.5-2.1L110.7,56.2z"/>
		<path fill-rule="evenodd" clip-rule="evenodd" fill="#FFFFFF" d="M107.2,47.7c-0.2-0.3-0.3-0.7-0.5-1l-10.5,0.5L107.2,47.7z"/>
		<path fill-rule="evenodd" clip-rule="evenodd" fill="#FFFFFF" d="M113.4,70.2c-0.1-0.8-0.2-1.6-0.3-2.4l-19.8-8.2L113.4,70.2z"/>
		<path fill-rule="evenodd" clip-rule="evenodd" fill="#FFFFFF" d="M113,66.4c-0.1-0.7-0.2-1.5-0.4-2.2l-18.5-6.3L113,66.4z"/>
		<path fill-rule="evenodd" clip-rule="evenodd" fill="#FFFFFF" d="M112.4,62.8c-0.1-0.7-0.3-1.3-0.4-2l-17.2-4.7L112.4,62.8z"/>
		<path fill-rule="evenodd" clip-rule="evenodd" fill="#FFFFFF" d="M111.6,59.4c-0.2-0.6-0.3-1.2-0.5-1.8l-15.9-3.3L111.6,59.4z"/>
		<path fill-rule="evenodd" clip-rule="evenodd" fill="#FFFFFF" d="M113.7,75.3l-22-12.6l18.6,13.1h-2L90.6,64.2l14.5,11.6l-2,0
			L89.5,65.6l11.2,10.2l-2,0L88.3,67l8.5,8.8l-2,0L87,68.3l6.4,7.5l-2,0l-5.8-6.3l4.7,6.3h-2l-4.2-5.2l3.4,5.2l-2,0l-2.9-4.2
			l2.4,4.2l-1.9,0l-2-3.3l1.6,3.3h-1.9l-1.3-2.4l1,2.4h-0.8L69.5,65.6c-0.1-5.5-0.2-12-0.2-12s0-0.1,0.1-0.2
			c0.3-0.4,0.7-1.3,1.2-1.5c0.4-0.1,0.3-0.2,0.7-0.3c0.6-0.1,1.4,0,2,0.3c0.3,0.1,1,0,1-0.1c-0.1-0.2-0.6-0.1-0.8-0.1
			c-0.2-0.1-0.6-0.2-0.8-0.2c0,0-0.1-0.1-0.1-0.1c0.4,0,0.9-0.2,1.3-0.1c0.5,0.1,0.8,0,1.3,0.2c0,0,0.3,0,0.3,0
			c0.3,0,0.4,0.2,0.6,0.3c0.4,0.3,0.8,0.5,1.2,0.7c0.4,0.1,0.8,0.1,1.3,0.1c0.4,0,0.9,0.7,0.8,0.9c-0.1,0.4,0,0.6,0.2,0.9
			c0.1,0.1,0.1,0.3,0.1,0.4c-0.1,0.6-0.1,1.2,0.4,1.7c0.2,0.2,1,0.9,1,0.9s0.1-1.7,0-2.1c-0.1-0.4-0.5-0.9-1-1c0,0-0.1,0-0.1-0.1
			c-0.2-0.2-0.4-0.3-0.2-0.7c0-0.1,0-0.3-0.1-0.5c-0.1-0.2-0.2-0.4-0.3-0.6c-0.1,0-0.1-0.1-0.1-0.1c0.4,0.2,0.9,0.3,1.2,0.5
			c0.4,0.3,0.8,0.7,1.2,0.9c0.4,0.2,0.6,0.5,0.5,1c-0.1,0.5-0.1,0.8,0.1,1.2c0.2,0.3,1,1.3,1.1,1.4c0-0.2,0.3-1.2,0.3-1.5
			c0.1-0.7-0.1-1.2-0.6-1.7c-0.2-0.2-0.4-0.1-0.7-0.3c-0.2-0.1-0.3-0.2-0.5-0.3c-0.4-0.3-0.9-0.6-1.1-1c0,0-0.1-0.1-0.1-0.1
			c-0.4-0.2-0.9-0.5-1.3-0.6c-0.3-0.1-0.6-0.1-0.9-0.1c-0.6,0.1-1.1,0.1-1.6-0.2c-0.4-0.2-0.7-0.6-1.1-0.8c-0.1-0.1,0.2-0.2,0.4-0.3
			c0.1,0,0.3-0.1,0.4-0.1c0.2-0.1,0.4-0.2,0.6-0.3c0.5-0.1,1-0.2,1.5-0.3c0.3-0.1,0.6-0.1,0.9-0.2c0.3-0.1,0.5-0.2,0.7-0.3
			c0.2,0,0.2,0.2,0.3,0.2c0.4,0.9-0.2,0.9,0.2,1.9c0.3,0.8,1.4,1.2,1.5,1.2c0-0.2,0.2-1.5-0.5-2.2C81,50,80.7,50,80.5,49.4
			c0.5,0.2,1.2,0.3,1.5,0.7c0.4,0.5,0.6,0.9,0.9,1.5c0.1,0.1,0.1,0.5,0.1,0.6c0,0.5,0.2,1,0.6,1.2c0,0,0.2,0.1,0.3,0
			c0.1-0.1-0.6-0.6-0.5-0.9c0-0.3,0.3,0,0.4,0.1c0.4,0.3,0.7,0.7,1.2,0.8c0.4,0,0.8,0.4,0.8,0.8c0,0.4-0.1,0.7,0,1.1
			c0.1,0.5,0,0.9-0.1,1.3c-0.2,0.5-0.4,0.8-0.2,1.4c0.1,0.4,0.5,0.8,0.6,1.3c0.1-0.3,0.6-1.2,0.4-2c-0.1-0.3-0.5-0.6-0.4-0.7
			c0-0.1,0.1-0.5,0.1-0.7c0.4,0.2,0.7,0.4,0.7,0.8c0.1,0.6,0.7,0.8,1.2,0.7c0.3-0.1,0.7,0,1.1,0.1c0.1,0,0.2,0.2,0.3,0.3
			c0,0.2,0,0.3,0,0.5c0,0.7,0.4,1.1,1,1.3c0.3,0.1,1.1,0.4,1.1,0.4s0-0.1,0-0.3c0-0.3-0.1-0.6-0.2-1c-0.2-0.7-0.7-1-1.3-1.1
			c-0.3,0-0.4-0.1-0.6-0.3c-0.1-0.1-0.4-0.2-0.6-0.2c-0.4,0-0.8,0-1.1,0c-0.1,0-0.3,0-0.3-0.2c0-0.5-0.3-0.9-0.6-1.2
			c-0.2-0.1-0.3-0.3-0.5-0.5c-0.1-0.1-0.1-0.2-0.1-0.3c0-0.4,0-0.8,0-1.3c0,0,0.1-0.1,0.1-0.1c0.4-0.1,0.8,0,1.1,0.1
			c0.4,0.1,0.6,0.5,0.9,0.7c0.2,0.1,0.4,0.4,0.6,0.5c0,0,0.1,0.1,0.2,0.1c0.2,0.3,0.6,0.9,1.3,1.1c0.9,0.2,2.1,0,2.3,0
			c-0.2-0.1-1-1.3-1.7-1.6c-0.7-0.3-1.4,0-1.7,0.1c-0.1,0-0.2,0.1-0.3,0.1c-0.4-0.2-0.7-0.5-0.7-0.7c0.2-0.1,0.5,0,0.6-0.2
			c0.3-0.3,0.5-0.3,0.8-0.3c0.3,0,0.5,0.1,0.8,0.1c0,0,0.1,0,0.1,0c0.2,0,0.4,0,0.6,0c0.2,0,0.5,0.1,0.7,0.2c0-0.1,0-0.2-0.1-0.2
			c-0.4-0.2-0.8-0.4-1.2-0.4c-0.1,0-0.3,0-0.4,0c-0.5,0-1-0.1-1.4,0.3c-0.1,0.1-0.2,0.1-0.2,0.1c-0.5-0.1-0.9-0.3-1.4-0.3
			C87,53,86.6,53,86.2,52.9c-0.4,0-0.9,0-1.3-0.2c-0.3-0.1-0.6-0.4-0.9-0.7c-0.3-0.3-0.6-0.7-0.9-1.1c-0.3-0.4-0.6-0.9-0.9-1.4
			c0.1,0,0.2,0,0.2,0c0.5,0.2,1.1,0.5,1.6,0.7c0.3,0.1,0.7,0.2,1,0c0.1-0.1,0.2-0.2,0.3-0.2c0.1,0,0.5,0,0.6,0.1
			c0.2,0.3,0,1,0.1,1.4c0.3,0.9,1.3,1,1.3,1s0.4-0.8-0.1-1.4c-0.2-0.4-1.2-0.7-0.9-1c0.6-0.2,1.6,1.4,2.8,1.3c0.3,0,0.6-0.1,0.8,0.1
			c0.3,0.2,0.5,0.4,0.7,0.6c0.7,0.7,1.9,0.5,2.6,0.2c-0.3-0.6-0.7-1.2-1.3-1.4c-0.3-0.1-0.8,0-1.1,0c-0.4,0.1-0.7,0.2-1.1,0.2
			c-0.9,0-1.4-0.2-1.9-0.7c-0.1-0.1-0.5-0.5-0.7-0.6c-0.2-0.1-0.2-0.3-0.2-0.5c0-0.1,0.2-0.1,0.3-0.2c0.5-0.3,0.9-0.1,1.3,0.3
			c0.2,0.2,0.5,0.3,0.8,0.4c0.1,0,0.4-0.1,0.4-0.2c0-0.1-1.2-0.4-1.6-0.9c0.4,0,0.8,0,1.2,0c0.1,0,0.4,0.1,0.4,0.2
			c0.4,0.4,0.7,0.3,1.2,0c0.1-0.1,0.3-0.1,0.4,0c1,0.7,1.8,0.5,2.8-0.2c-0.1-0.1-0.3-0.2-0.4-0.3c-0.8-0.9-2.1-0.8-2.7,0.2
			c-0.2,0.3-0.8,0.5-1,0.3c-0.3-0.3-0.7-0.3-1-0.3c-0.3,0-0.7,0-1,0.1c-0.2,0-0.5,0-0.7,0.1c-0.3,0.1-0.6,0.4-1,0.6
			c-0.4,0.3-0.9,0.4-1.4,0.5c-0.2,0,0.3-0.7,0.5-1c0.2-0.3,0.3-0.7,0.6-0.9c0.2-0.1,0.4-0.3,0.6-0.4c0.3-0.3,0.7-0.3,1.1-0.1
			c0.2,0.1,0.3,0.2,0.5,0.2c0.5,0.1,0.7,0.2,1.2,0.2c1,0,1.4-0.7,1.6-0.9c-0.2-0.1-1.1-0.6-1.7-0.5c-0.4,0.1-0.6,0.3-0.8,0.5
			c-0.3,0.3-0.6,0.4-1,0.1c-0.1-0.1-0.2-0.1-0.3-0.1c-0.2,0-0.2,0-0.1-0.1c0.1-0.1,0.2-0.2,0.3-0.3c0.2-0.2,0.3-0.5,0.5-0.7
			c0.1-0.2,0.3-0.4,0.5-0.5c0.6-0.3,1.3-0.3,2-0.2c0.5,0.1,0.8,0.3,1.4,0.2c0.7,0,1.3-1,1.7-1.3c-0.4-0.2-1.5-0.4-2-0.4
			c-0.9,0.1-1.1,0.5-1.2,1c-0.1,0-0.6,0-0.7,0c-0.9,0-1.7,0.2-2.1,1.1c-0.1,0.2-0.2,0.3-0.4,0.4c-0.2,0.2-0.4,0.3-0.6,0.5
			c-0.1,0.1-0.1-0.3-0.1-0.4c0-0.2,0-0.4,0.1-0.6c0-0.2,0.1-0.6,0.3-0.7c0.1-0.1,0.2-0.2,0-0.2c-0.1-0.1-0.3,0.1-0.4,0.3
			c-0.1,0.2-0.3,0.8-0.3,1.2c0,0.2-0.1,0.6-0.3,0.9c-0.4,0.5-0.8,0.9-1.1,1.4c-0.2,0.4-0.5,0.7-0.9,0.9c0,0-0.1,0-0.2,0
			c-0.4-0.1-0.9-0.3-1.3-0.4c-0.8-0.2-1.4-0.5-2.3-0.6c-0.1,0-0.4,0.1-0.3-0.1c0.3-0.3,0.4-0.7,0.6-1c0.1-0.1,0.2-0.2,0.3-0.3
			c0.2-0.2,0.6-0.4,0.2-0.4c0,0-0.6,0.4-0.8,0.8c-0.1,0.2-0.3,0.4-0.4,0.6c-0.2,0.4-0.7,0.6-1.2,0.8c-0.8,0.4-1.7,0.2-2.5,0.6
			c0,0-0.1,0-0.1,0c0-0.3,0.2-0.5,0.5-0.5c0.2-0.1,0.2,0,0.4,0c0.8-0.1,1.2-1,1.3-1.8c-1.5,0-1.8,0.5-2,1.5
			c-0.1,0.5-0.7,0.9-1.1,1.2c-0.4,0.3-0.8,0.4-1.2,0.6c-0.2,0.1-0.2-0.1-0.2-0.2c0-0.1,0.1-0.2,0.2-0.3c0.1-0.1,0.3-0.2,0.4-0.3
			c0.2-0.2,0.3-0.5,0.5-0.8c0.2-0.3,0.3-0.6,0.7-0.7c0.1,0,0.2-0.3,0.2-0.4c-0.1-0.2-0.4,0.2-0.5,0.3c-0.1,0-0.5,0.5-0.6,0.6
			c-0.1,0.4-0.3,0.7-0.6,0.9c-0.1,0.1-0.3,0.2-0.4,0.3c-0.4,0.6-1,0.6-1.7,0.6c-0.1,0-0.2,0-0.3,0c-0.4,0.1-0.7,0.1-1.1,0.2
			c0.1-0.5,0.2-0.9,0.6-1c0.2-0.1,0.5-0.2,0.7-0.2c0.3,0,0.8-0.2,0.9-0.5c0.3-0.5,0.5-1.1,0.6-1.6c-0.2,0.1-0.7,0.1-0.8,0.2
			c-0.3,0.1-0.7,0.1-0.9,0.3c-0.4,0.2-0.6,0.7-0.7,1.3c-0.1,0.5-0.3,0.6-0.7,0.9C70.1,49.8,70,49.9,70,50c-0.3,0.7-0.9,0.9-1.6,1.2
			c0-0.2-0.1-0.4-0.1-0.5c0-0.2,0-0.3,0.1-0.5c0.3-0.4,0.5-0.9,0.8-1.3c0.3-0.4,0.6-0.8,0.8-1.2c0.3-0.5,0.7-0.8,1.2-1
			c0.1-0.1,0.3-0.1,0.4-0.2c0.4-0.3,0.9-0.4,1.4-0.5c0.9-0.1,1.7-0.1,2.6,0.2c0.4,0.2,1.3,0.4,1.8,0.2c0.2-0.1,0.4-0.2,0.7-0.2
			c0.4-0.1,0.8-0.3,1.2-0.4c0.3-0.1,0.7-0.1,1-0.1c0.4,0,0.7,0,1.1,0.1c0.2,0,0.5,0.1,0.6,0.2c0.2,0.2,0.2,0.4,0.3,0.6
			c0.1,0.3,0.4,0.7,0.7,0.8c0.5,0.2,1.1,0.2,1.7,0.5c0-0.5-0.6-1.6-0.9-1.8c-0.5-0.4-0.6-0.3-1.2-0.4c-0.2,0-0.8-0.2-1-0.3
			c0,0,0.3-0.3,0.3-0.3c0.4-0.6,0.5-0.6,0.9-0.7c0.5-0.1,1,0,1.4,0.3c0.2,0.1,0.4,0.1,0.6,0.1c0.2,0,0.2-0.1,0.1-0.2
			c-0.1,0-0.1-0.1-0.2-0.1c-0.1,0-0.3,0-0.4-0.1c-0.2-0.1-0.4-0.1-0.5-0.2c-0.1,0-0.4-0.2-0.3-0.3c0.2-0.2,0.5-0.6,0.9-0.6
			c0.1,0,0.5,0.4,0.6,0.5c0.4,0.1,0.8,0.2,1.2,0.2c0.3,0,0.6-0.2,0.9-0.3c0.6-0.4,1-0.5,1.6-0.9c0.2-0.3,0.4-0.5,0.7-0.6
			c0.5-0.1,0.8-0.2,1.3-0.2c1,0.1,1.7-0.9,1.8-1.6c-1.2-0.2-2.1-0.1-2.5,0.6c-0.2,0.3-0.4,0.9-0.8,1c-0.1,0-0.3,0.3-0.4,0.4
			c-0.6,0.5-1,0.5-1.5,0.6c-0.2,0-0.1-0.1,0-0.2c0.3-0.3,0.5-0.7,0.8-1c0.1-0.1,0-0.2,0-0.2c-0.2,0.1-0.4,0.2-0.5,0.4
			c-0.2,0.2-0.3,0.5-0.5,0.8c-0.1,0.2-0.3,0.3-0.4,0.5c0,0-0.2,0.1-0.3,0.2c-0.2,0.2-0.5,0-0.8,0c-0.4,0-0.6-0.3-0.7-0.5
			c0.2-0.3,0.4-0.6,0.6-0.9c0.2-0.3,0.4-0.6,0.7-0.8c0.4-0.2,0.8-0.4,1.2-0.5c0.3-0.1,0.7-0.2,0.9-0.5c0.4-0.4,0.6-0.5,1.2-0.4
			c0.4,0.1,1,0,1.4-0.1c0.5-0.2,1-1.4,0.9-1.6c0,0-1,0-1.3,0c-0.5,0.1-0.8,0.3-1.1,0.7c-0.2,0.2-0.3,0.4-0.5,0.6
			c-0.3,0.2-0.6,0.4-0.9,0.6c-0.2,0.1-0.4,0.3-0.6,0.3c-0.4,0.1-0.8,0.2-1.2,0.2c0.1-0.3,0.2-0.7,0.3-1c0.1-0.4,0.3-0.8,0.8-0.9
			c0,0,0.1,0,0.1,0c0-0.3,0.3-0.2,0.4-0.2c0.3,0,0.6-0.1,0.8-0.4c0,0,0.1-0.1,0.1-0.1c0.5-0.1,1.1-0.1,1.4-0.5
			c0.3-0.3,0.6-1.6,0.5-1.6c-0.5,0.1-1.2,0.3-1.7,0.5c-0.5,0.3-0.4,0.8-0.6,1.4c-0.2,0.4-0.7,0.7-1.2,0.6c0-0.4-0.1-0.9,0.4-1.2
			c0.4-0.3,0.7-0.6,0.8-1c0.1-0.2,0.1-1,0.1-1.1c-0.3,0.1-1.3,0.4-1.5,0.8c-0.2,0.4-0.3,0.9-0.1,1.2c0.1,0.2,0.1,0.5,0.1,0.7
			c0,0.4-0.1,0.8-0.5,1c-0.1,0.1-0.2,0.2-0.2,0.4c-0.2,0.7-0.5,1.3-0.9,1.9c-0.2,0.3-0.3,0.5-0.4,0.8c-0.1,0.4-0.3,0.6-0.6,0.8
			c-0.1,0-0.2,0.1-0.2,0c-0.1,0-0.1-0.2-0.1-0.2c0-0.4,0.1-0.5,0.2-0.7c0.2-0.3,0.8-0.5,0.8-1.4c0-0.3-0.2-1-0.4-1.3
			c-0.2,0.5-0.7,0.8-0.9,1.1c-0.5,0.6-0.5,1-0.1,1.7c0.1,0.1,0.1,0.3,0.1,0.4c0,0.2,0,0.4-0.1,0.5c-0.1,0.4-0.2,0.7-0.5,0.9
			c-0.2,0.1-0.4,0.1-0.7,0.2c-0.1,0-0.3,0.1-0.4,0.2c-0.1,0.1-0.3,0.2-0.4,0.4c-0.2,0.4-0.9,0.7-1.2,0.6c0-0.1,0.2-0.4,0.2-0.5
			c0.2-0.5,0.2-0.5,0.3-1.1c0-0.3,0.2-0.7,0.3-1c0.2-0.5,0.4-0.9,0.7-1.3c0.1-0.1,0.2-0.2,0.3-0.2c0.4-0.2,0.6-0.5,1-0.8
			c0.4-0.4,0.4-0.8,0.6-1.2c0.2-0.5,0.5-0.9,1-1.1c0.1,0,0.2-0.1,0.2-0.2c0.2-0.2,0.3-0.5,0.6-0.6c0.3-0.1,0.4-0.2,0.3-0.2
			c-0.4,0-0.6,0-0.8,0.3c-0.2,0.3-0.4,0.4-0.7,0.6c-0.3,0.2-0.6,0.5-0.9,0.7c-0.2-0.9,0.5-2.6,0.7-2.9c0.4-0.6,0.7-0.5,0.8-0.5
			c0.7,0,0.7-0.1,1.3-0.4c0.4-0.2,0.8-0.2,1.2-0.3c0.7-0.3,1.1-1.3,1.2-2.1c-0.2,0.1-1.6,0.1-2.1,0.8c-0.2,0.4-0.3,0.7-0.5,1.2
			c-0.1,0.3-0.3,0.5-0.6,0.6c-0.3,0-0.6,0.1-0.9,0.1c0-0.1,0.1-0.6,0.2-0.7c0.2-0.5,0.2-0.7,0.3-1c0.2-0.7,0.3-0.8,1-1.3
			c0.7-0.4,1-1.6,0.5-2.4c-0.1,0-0.7,0.3-0.9,0.5c-0.6,0.6-0.8,0.9-0.7,1.7c0,0.3,0.1,0.5,0.1,0.7c-0.1,0.3-0.2,0.4-0.2,0.6
			c0,0.1-0.2,0.7-0.3,0.8c-0.2,0.4-0.2,0.7-0.4,1.1c-0.2,0.4-0.3,0.8-0.5,1.2c-0.1,0.2-0.3,1.3-0.4,1.5c-0.1-1.2-0.2-2-1.4-2.6
			c-0.1,0.5-0.2,1-0.1,1.6c0.1,0.4,0.6,0.8,0.9,0.9c0.3,0.1,0.4,0.3,0.5,0.6c0,0.3,0,0.6,0,1c0,0.5-1,1.4-1.3,1.4
			c-0.3-0.1,0-1.3,0-1.6c0-0.3-0.5-1.7-0.4-0.6s0,1.9,0,2.2c0,0.3-0.3,0.7-0.4,0.9c-0.2,0.3-0.3,1.1-0.5,1.1c-0.4,0,0-0.4-0.1-0.8
			c-0.2-0.7-0.9-0.9-1.1-1.2c-0.2,0.5-0.1,1.3,0,1.5c0.3,0.8,0.8,0.5,1,0.7c0.1,0.1,0,0.4,0,0.6c0,0.3-0.2,0.7-0.3,0.9
			c-0.1,0.2-0.2,0.4-0.4,0.6c-0.1,0.2-0.3,0.3-0.5,0.4c-0.2,0.1-0.5,0.1-0.7,0.2c-0.3,0.1-0.6,0.3-0.9,0.4c-0.3,0.1-0.6,0.1-0.8,0.1
			c-0.8-0.1-1.5-0.3-2.3-0.5c0,0-0.1-0.1-0.2-0.1c0.1-0.1,0.2-0.1,0.3-0.2c0.3-0.3,0.6-0.6,0.9-0.8c0.3-0.2,0.7-0.2,1,0.1
			c0.4,0.5,1.1,0.5,1.6,0.4c0.6-0.2,1-0.5,1.3-1.1c-0.1,0-0.4-0.1-0.5-0.2c-0.5-0.2-1.4-0.5-1.9,0c-0.2,0.2-0.4,0.3-0.7,0.2
			c-0.2,0-0.3,0-0.5,0c0.2-0.2,0.2-0.5,0.4-0.7c0.2-0.2,0.2-0.3,0.3-0.5c0.1-0.3,0.4-0.5,0.4-0.9c0.1-0.6,0.7-1,1.2-1.3
			c0.4-0.2,0.7-0.2,1-0.4c0.2-0.1,0.7-0.4,0.9-0.7c0.2-0.4,0.4-1.2,0.3-1.6c-0.1,0.2-0.3,0.3-0.8,0.5c-0.1,0-0.8,0.4-1,0.6
			c-0.3,0.4-0.2,0.7-0.3,1.2c0,0.1,0,0.1-0.1,0.2c-0.3,0.2-0.7,0.4-1,0.6c0-0.1,0-0.2,0-0.3c0-0.3,0.1-0.7,0.1-1
			c0-0.1,0.1-0.2,0.2-0.4c0.1-0.2,0.3-0.3,0.4-0.5c0.2-0.2,0.4-0.4,0.5-0.6c0.4-0.5,0.2-1,0.3-1.6c0-0.4,0-0.8,0.4-1.3
			c0.3-0.4,0.7-0.4,1-0.5c0.4-0.1,0.7-0.1,1-0.1c0.1,0,0.2-0.1,0.3-0.1c0.1-0.1,0.3-0.3,0.4-0.3c0.6-0.1,0.7-0.1,1.1-0.3
			c0.4-0.2,0.7-0.7,0.7-1.3c0-0.5-0.1-0.9-0.1-0.9c-1,0.5-2,0.9-2,2.2c0,0.3-0.4,0.5-0.7,0.5c-0.1,0-0.2,0-0.4,0c-0.5,0-1,0-1.5,0
			c0.1-0.2,0.1-0.4,0.2-0.6c0.2-0.3,0.5-0.6,0.6-1c0.2-0.4,0.5-0.7,0.9-1c0.2-0.1,0.4-0.3,0.6-0.5c0.3-0.2,0.6-0.4,1-0.4
			c0.1,0,0.3-0.1,0.4-0.1c0-0.1-0.1-0.1-0.2-0.1H82c0.2-0.7,0.9-1,1.4-1.6c0.2-0.2,0.4-0.5,0.5-0.8C84,28,84,26.7,84,26.7
			c-0.2,0.1-1.3,0.4-1.8,1.2c-0.4,0.7-0.3,1.2-0.3,2c0,0.7-0.3,1.2-0.9,1.6c-0.2,0.2-0.5,0.2-0.8,0.3c-0.1,0-0.2,0.1-0.3,0.1
			c0-0.1,0-0.2,0-0.3c0-0.1,0-0.2,0-0.3c-0.1-0.5-0.2-1-0.3-1.5c0-0.2,0-0.6,0.1-0.6c1-0.4,1.3-0.9,1.5-1.8c0.1-0.5,0-1.1,0.2-1.7
			c-0.2,0.2-0.7,0.3-0.9,0.3c-0.7,0.3-1.1,0.7-1.2,1.5c-0.1,0.6,0.1,1.2,0.1,1.8c0,0.6,0,1.2,0.2,1.8c0,0.1,0,0.2,0,0.3
			c-0.1,0.8-0.4,1.3-0.8,1.9c-0.3,0.5-0.4,0.9-0.5,1.4c-0.1,0.4-0.1,1.1-0.2,1.6c-0.2,0.5-0.5-0.3-0.5-0.6c-0.2-0.6-0.9-1-1.5-1.3
			c0.1,0.8,0.1,1.6,0.3,1.9c0.4,0.5,0.8,0.6,1,0.6c0.3,0,0.2-0.1,0.6,0c0,1.1-0.9,1.5-1.3,2.1c-0.1-0.3-0.2-0.6-0.3-0.8
			c-0.3-0.5-0.3-0.5-0.6-0.5c0.3,0.4,0.4,0.9,0.3,1.4c0,0,0,0.1,0,0.1c0.2,0.6,0.2,1.1,0.1,1.7c-0.2,1.1-0.8,2-1.5,2.9
			c-0.2,0.3-0.4,0.5-0.6,0.7c-0.3,0.2-0.5,0.4-0.9,0.6c0.1-0.3,0-0.5,0-0.7c0-0.2-0.1-0.4,0-0.7c0-0.1,0.1-0.3,0.2-0.3
			c0.7-0.2,1.2-0.2,1.6-1.3c0.3-0.8,0.2-1.4,0.3-1.5c-0.5,0-1.6,0.1-2,0.8c-0.3,0.6-0.1,1.1-0.3,1.7c-0.2,0.5-0.3,0.8-0.2,1.4
			c0.1,0.3-0.1,0.5-0.2,0.6c-0.5,0.4-0.8,0.5-1.5,0.6c-0.2,0-0.4-0.2-0.3-0.4c0.1-0.2,0.2-0.3,0.2-0.5c0-0.1,0.2-0.3,0-0.4
			c-0.1,0.1-0.2,0.3-0.3,0.4c-0.1,0.2-0.3,0.4-0.4,0.6c-0.1,0.3-0.2,0.5-0.4,0.8c-0.3,0.4-0.6,0.8-0.9,1.2c-0.2,0.3-0.4,0.7-0.6,1.1
			c-0.1,0.1-0.1,0.2-0.3,0.3c0,0-0.2,0-0.2,0c0,0-0.1-0.1-0.1-0.1c0-0.1,0-0.2,0-0.3c0-0.4,0.1-0.3,0.4-1c0.1-0.1,0.2-0.3,0.3-0.5
			c0.2-0.4,0.4-0.8,0.6-1.1c0.2-0.4,0.5-0.7,0.9-1c0.2-0.2,0.3-0.5,0.5-0.8c0.4-0.9,0.9-1.8,1.2-2.7c0.2-0.5,0.6-0.7,1.1-0.9
			c0.4-0.1,0.9-0.2,1.3-0.4c0.8-0.4,1.2-1.2,1-2.1c0-0.2-0.1-0.4-0.2-0.6c-0.4,0.4-0.7,0.7-1.1,0.9c-0.5,0.4-0.7,0.9-0.8,1.4
			c0,0.3-0.1,0.4-0.3,0.5c-0.4,0.2-0.9,0.3-1.4,0.5c0.1-0.3,0.1-0.6,0.2-0.8c0.3-0.8,0.6-1.6,1-2.3c0.2-0.4,0.5-0.8,0.9-1.1
			c0.5-0.3,0.9-0.5,1.3-1c0.1-0.1,0.3-0.3,0.3-0.3c0.4-0.3,0.4-0.7,0.5-1.1c0.1-0.3,0.2-0.6,0.4-0.8c0.1-0.2,0.4-0.4,0.6-0.6
			c0.1-0.1,0.2-0.2,0.4-0.3c0.5-0.1,0.8-0.4,1.1-0.7c0.4-0.5,0.6-2.3,0.6-2.2c-0.3,0.3-1,0.5-1.1,0.5c-0.9,0.4-1,1.4-0.9,1.7
			c0.1,0.3,0,0.6-0.3,0.9c-0.2,0.2-0.3,0.1-0.3,0c0-0.3-0.1-0.7-0.1-1c0-0.3-0.1-0.7-0.1-1c0-0.3,0-0.5,0.1-0.8
			c0.1-0.2,0.2-0.5,0.4-0.7c0.3-0.3,0.6-0.6,0.8-1c0.4-0.8,1.5-1.1,1.5-2c0-0.5-0.2-1.9-0.2-1.9s-1.4,1.3-1.5,2.1
			c-0.1,0.4,0.1,1,0,1.4c-0.1,0.4-0.2,0.7-0.5,0.9c-0.3,0.2-0.6,0.4-0.7,0.8c0-0.1-0.1-0.2-0.1-0.2c-0.1-0.4-0.2-0.5-0.3-0.9
			c-0.1-0.1-0.1-0.2-0.2-0.3c-0.1-0.1-0.1-0.2-0.1-0.3c0-0.3-0.1-0.5-0.1-0.8c0,0,0.1-0.5,0.1-0.5c0,0,0-0.1,0-0.2
			c0.1-0.1,0.4-0.1,0.8-0.5c0.6-0.5,0.4-2.6,0.4-2.6s-1.3,0.3-1.6,1.3c-0.2,0.7-0.1,1.2,0,1.5c0,0,0,0,0,0c0,0.1,0.1,0.2,0.1,0.3
			c0,0.3-0.1,0.6-0.1,1c0,0-0.2-0.1-0.3-0.2c-0.1-0.2-0.2-0.5-0.4-0.4c-0.2,0.2-0.2,0.3,0,0.5c0.3,0.4,0.7,0.7,0.9,1.2
			c0,0.1,0.1,0.2,0.1,0.3c0.3,0.3,0.4,0.7,0.4,1c0.1,1,0.2,2.1,0.2,3.1c0,0.3-0.2,0.6-0.3,0.9c-0.1,0.1-0.1,0.1-0.1,0
			c-0.1-0.4-0.1-0.7-0.1-1c0,0-0.1,0-0.1,0c0,0.1-0.1,0.2-0.1,0.2c0,0.2,0,0.4,0.1,0.6c0.1,0.5,0.1,0.9-0.1,1.4
			c-0.4,0.7-1.1,1-1.8,1.3c0-0.5,0-1,0-1.5c0-0.3,0-0.6,0-0.9c0-0.3-0.1-0.7-0.1-1c0-0.2,0-0.3,0-0.5c-0.1-0.4,0-0.6,0.3-0.8
			c1.2-0.6,0.8-2.2,0.4-2.7c-0.1,0.1-1.1,0.9-1.1,1.8c0,0.4,0.1,0.6,0.1,0.9c0,0.4-0.1,0.7-0.1,1.2c-0.1,0-0.2-0.3-0.2-0.3
			c-0.2-0.5-0.5-1-0.6-1.5c-0.1-0.3-0.1-0.5-0.1-0.8c-0.1-0.4,0-0.8,0-1.2c0,0,0-0.7,0-0.8c0-0.1,0.1-0.2,0.1-0.2s0.4-0.6,0.6-0.9
			c0.1-0.2,0.3-0.4,0.2-0.6c0-0.4,0.2-1.1,0.5-1.4c0.1-0.1,0.5-0.2,0.6-0.6c0.1-0.5,0-0.9-0.2-1.2c-0.1-0.2-0.2-0.4-0.4-0.6
			c-0.6,0.7-1,1.9-0.5,2.3c0.1,0.1-0.1,0.3-0.1,0.5c-0.1,0.2-0.2,0.4-0.2,0.7c-0.1,0.2,0,0.5-0.1,0.7c-0.2,0.4-0.5,0.8-0.7,1.2
			c0,0,0,0,0,0c-0.1-0.3-0.2-0.7-0.4-0.9c-0.2-0.3-0.3-0.6-0.4-0.9c-0.1-0.4-0.2-0.7,0.1-1.1c0.3-0.4,0.6-0.6,0.6-1.2
			c0-0.4-0.2-0.8-0.3-1.1c-0.1-0.2-0.1-0.6-0.2-0.9c-0.3,0.6-0.9,1-1,1.7c-0.2,0.8,0.2,1.2,0.3,1.3c0.2,0.3,0.2,0.8,0.2,1.2
			c-0.3-0.8-0.7-1.1-0.6-1c0.1,0.1,0.4,0.9,0.4,1c0.3,0.8,0.5,1.1,0.7,1.3c0.4,0.5,0.4,1,0.4,1.7c0,0.7-0.1,1.5,0.2,2.2
			c0.2,0.7,0.6,1.4,0.9,2.1c0.1,0.3,0.2,0.5,0.3,0.8c0.1,0.5,0.1,0.9,0.1,1.4c0,0.2,0,0.4-0.1,0.6c0,0.1-0.1,0.1-0.1,0
			c0-0.1,0-0.1-0.1-0.2c-0.1-0.4-0.2-0.8-0.3-1.2c-0.1-0.2-0.3-0.3-0.5-0.4c0.1,0.3,0.2,0.5,0.3,0.7c0.1,0.3,0.1,0.6,0.2,0.9
			c0.1,0.6,0.3,1.1-0.1,1.7c-0.1,0.2-0.2,0.4-0.2,0.6c-0.1,0.6-0.3,1.1-0.6,1.6c-0.4,0.5-0.7,1.1-0.7,1.8c0,0.4,0,0.8-0.1,1.3
			c-0.1,0.4-0.2,0.7-0.5,1c-0.1,0-0.1-0.1-0.2-0.2c-0.1-0.4-0.1-0.8-0.2-1.1c-0.2-0.4-0.6-0.4-1-0.8c-0.2,0.9-0.3,1.6,0.3,1.9
			c0.6,0.3,0.8,0.1,0.9,0.4c-0.1,0.4-0.6,0.6-0.9,0.9c-0.3,0.3-0.7,0.5-1,0.9c-0.2,0.3-0.4,0.5-0.7,0.8c0-0.5-0.1-0.8-0.1-1.2
			c0-0.5-0.1-1,0.1-1.5c0.1-0.3,0.1-0.7,0.3-1c0.1-0.4,0.4-0.8,0.5-1.2c0.3-0.6,0.7-1.1,1.2-1.6c0.1-0.1,0.2-0.2,0.3-0.3
			c0.2-0.3,0.2-0.7,0.7-0.7c0.1,0,0.3,0,0.4-0.2c0.2-0.2,0.2-1,0.1-0.9c-0.2,0,0,1-0.6,0.8c-0.1-0.3,0-0.5,0-0.8
			c0-0.3-0.1-0.6-0.1-0.8c0-0.6,0.2-1.1,0.6-1.5c0.2-0.2,0.4-0.4,0.4-0.8c-0.3,0.3-0.7,0.6-1,0.9c0-0.9-0.2-1.5,0.2-2.5
			c0.1-0.2,0.1-0.3,0.2-0.3c0.5-0.4,1-0.9,0.9-1.6c-0.1-0.3-0.3-1.2-0.7-1.9c-0.2,0.6-1,1.6-1,2.2c0,0.8,0.2,0.9,0.2,1
			c0,0.7-0.5,1.3-0.4,2c0,0.3-0.1,0.5-0.1,0.8c0,0.6,0,0.8,0,1.4c0,0.1,0.1,0.6,0.1,0.7c0.1,0.9-0.3,1.4-0.9,2
			c-0.1-0.1-0.2-0.2-0.3-0.2c-0.2-0.2-0.5-0.7-0.5-0.9c0.1-0.4,0.5-0.2,0.6-1.1c0.1-0.5-0.2-1.4-0.4-1.7c-0.1,0.3-0.7,1-0.9,1.4
			c-0.2,0.4-0.1,0.8,0.2,1.2c0.2,0.4,0.5,0.8,0.7,1.1c0.2,0.3,0.2,0.6-0.1,0.8c-0.2,0.2-0.4,0.3-0.5,0.5c-0.2,0.4-0.3,0.8-0.5,1.2
			c-0.1,0.1-0.2,0.3-0.2,0.4c0,0-0.1,0-0.1,0c0-0.1,0-0.2-0.1-0.4c-0.2-0.7-0.3-1.3-0.3-2c0-0.1,0-0.2,0-0.4
			c-0.1-0.5-0.2-1.1-0.2-1.6c0-0.4,0.2-0.8,0.3-1.2c0.2-0.8,0.6-1.4,1-2.1c0.5-0.8,1-1.6,1.3-2.6c0.2-0.7,0.4-1.4,0.4-2.2
			c0-0.2,0-0.5,0.2-0.7c0.3-0.4,0.3-0.9,0.4-1.3c0-0.1,0-0.4-0.1-0.2c-0.3,0.4-0.2,1-0.7,1.4c0-0.5-0.1-1-0.1-1.5c0-1,0.1-2,0.1-3
			c0-0.1,0.1-0.3,0.1-0.4c0.3-0.6,0.6-1.2,0.4-1.8c-0.1-0.3-0.4-1-0.5-1.3c-0.4,0.5-1,1.1-1,1.8c0,1.3,0.7,1.3,0.7,1.9
			c0,0.3,0,0.7-0.1,1c-0.1,0.5-0.1,1.1-0.2,1.6c-0.9,0.1-1.6-0.4-1.8-1.2c-0.1-0.2,0-0.5,0-0.7c0.1-0.2,0.1-0.4,0.2-0.6
			c0.2-0.3,0.1-1,0-1.3c0,0-0.1,0-0.2,0.1c0,0.3,0.1,0.6,0,0.9c-0.1,0.3-0.3,0.6-0.4,1.1c0,0-0.4-1-0.4-1c0-0.1,0-0.1,0-0.2
			c0-0.6,0.2-1,0.1-1.6c-0.1-0.5-0.7-1.2-1-1.7c-0.1,0.6-0.7,1.4-0.6,2c0.1,0.7,0.4,1.1,0.8,1.3c0.1,0.1,0.2,0.2,0.3,0.3
			c0.3,0.4,0.5,0.9,0.6,1.4c0,0.1,0,0.2,0.1,0.3c0.4,0.3,0.7,0.7,1.1,0.9c0.3,0.2,0.6,0.3,0.9,0.5c0.1,0.1,0.2,0.1,0.2,0.2
			c0.1,0.1,0.1,0.3,0.1,0.5c0,0.1,0,0.2,0,0.4c0,0.3,0,0.5,0,0.8c0,0.3,0,0.5,0,0.8c0,0.1,0,0.3,0,0.4c0,0.2,0,0.3,0,0.5
			c0,0.2-0.1,0.4-0.1,0.6c0,0.1,0,0.3-0.2,0.2c-0.2-0.2-0.3-0.5-0.3-0.7c-0.1-0.3,0.2-0.9,0.1-1.4c-0.2-0.7-0.8-1.1-1.2-1.7
			c0,0.8-0.3,1.5-0.1,2.1c0.3,1,0.9,1,1.1,1.4c0.1,0.1,0.1,0.3,0.1,0.4c0,0.1,0.1,0.1,0.1,0.2c0.1,0.2,0,0.3,0,0.4
			c-0.1,0.1-0.1,0.3-0.2,0.4c-0.1,0.2-0.3,0.5-0.5,0.7c-0.1,0.1-0.2,0.2-0.3,0.3c-0.2,0.2-0.3,0.1-0.4-0.2c-0.1-0.4,0-0.8,0-1.2
			c-0.1-0.9-0.4-1.8-0.9-2.5c-0.3-0.5-0.8-0.9-0.8-1.5c0-0.2,0.2-0.4,0.3-0.5c0.3-0.4,0.4-0.6,0.4-1.1c0-0.6-0.8-1.6-0.8-1.6
			c0,0.1-0.1,0.7-0.3,0.8c-0.3,0.5-0.4,0.7-0.4,1c0,0.6,0.1,0.9,0.5,1.5c-0.1-0.1-0.1-0.1-0.2-0.1c-0.3-0.3-0.7-0.6-1-0.9
			c-0.5-0.4-0.7-1-0.9-1.5c-0.1-0.5-0.1-0.9-0.2-1.4c0-0.1,0-0.2,0-0.3c0.1-0.5,0.2-0.6,0.3-1.1c0.1-0.7-0.4-1.6-0.9-2
			c-0.5,0.6-0.8,1.8-0.3,2.5c0.2,0.3,0.6,0.5,0.7,1c0,0.4,0.1,1.2,0.3,1.6c-0.2-0.1-0.7-0.5-0.8-0.8c-0.1-0.1-0.1-0.3-0.1-0.4
			c0-0.1-0.1-0.2-0.2-0.3c-0.2-0.2-0.4-0.2-0.5-0.4c-0.2-0.1-0.2-0.3-0.3-0.5c0-0.1-0.1-0.3-0.2-0.3c-0.2,0-0.1,0.2,0,0.2
			c0.1,0.2,0.1,0.3,0.2,0.5c0.1,0.2,0.2,0.3,0.3,0.4c0.1,0.1,0.1,0.1,0.2,0.2c0.1,0.1,0.3,0.2,0.3,0.3c-0.1,0.1-0.3,0.2-0.4,0.1
			c-0.2,0-0.4-0.3-0.5-0.3c-0.1,0.1,0,0.2,0,0.2c0,0.1,0.1,0.1,0.2,0.2c0.1,0.2,0.4,0,0.5,0c0.1-0.1,0.2,0,0.3,0.1
			c0.1,0.1,0.2,0.2,0.3,0.3c0.1,0.1,0.2,0.2,0.3,0.3c0.2,0.3,0.5,0.5,0.7,0.8c0.2,0.2,0.4,0.4,0.6,0.6c0.7,0.6,1.4,1.2,1.9,2
			c0.3,0.4,0.5,0.9,0.6,1.5c-0.5-0.3-0.9,0-1.2,0.1c-0.1,0-0.2,0-0.2,0c-0.4-0.1-0.6-0.5-0.8-0.8c-0.2-0.2-0.4-0.4-0.6-0.6
			c-0.3-0.2-0.4-0.4-0.4-0.8c0-0.4,0-0.8-0.2-1.2c-0.4-0.7-1.4-1.2-1.4-1.2s0,1.5,0.1,1.9c0.2,0.6,0.5,0.8,1,0.9
			c0.1,0,0.3,0.1,0.4,0.2c0.4,0.5,1,0.8,1.3,1.6c0,0-0.2,0-0.3,0c-0.6-0.3-1.3-0.6-1.4-0.6c-0.1-0.1-0.4-0.1-0.2,0.1
			c0.1,0.1,0.3,0.2,0.4,0.3c0.2,0.1,0.4,0.2,0.6,0.3c0.3,0.2,0.6,0.4,1,0.3c0,0,0.1,0,0.1,0c0.4,0.3,0.8,0.1,1.2,0
			c0.1,0,0.4-0.1,0.4,0c0.2,0.3,0.7,0.5,0.6,1c-0.3,0.1-0.5-0.4-0.8-0.1c0.7,0.5,0.9,1.1,0.8,1.9c0,0.2,0,0.3,0,0.5
			c0,0.2-0.1,0.4-0.2,0.6c-0.2,0.5-0.3,1-0.2,1.5c0.1,0.3,0.2,0.7,0.3,1c0,0.1,0,0.2,0,0.4c0,0-0.1,0-0.1,0.1c0,0,0-0.1-0.1-0.1
			c-0.3-0.4-0.6-0.9-0.9-1.3c-0.3-0.4-0.7-0.7-1-1c-0.4-0.4-0.5-0.9-0.4-1.5c0.1-0.2,0.3-0.7,0.2-1.1c-0.1-0.6-0.7-1-1.2-1.3
			c-0.1,0.7-0.2,1.3,0,1.9c0.1,0.3,0.6,0.6,0.6,1c0,0.3,0.2,1-0.1,0.9c-0.1,0-0.3-0.1-0.4-0.1c-0.8-0.2-1.4-0.7-1.6-1.5
			c-0.2-0.8-0.4-1.5-0.5-2.3c-0.1-0.2-0.1-0.5-0.1-0.8c-0.1-0.4,0-0.8-0.2-1.2c-0.4-0.8-0.8-1.5-1.3-2.3c-0.3-0.4-0.3-0.9-0.2-1.3
			c0-0.3,0-0.6,0-0.9c-0.1-0.8,0.1-0.8,0.2-1.3c0.2-0.6-0.1-1.6-0.9-2c-0.4,0.6-0.5,1.5-0.2,2c0.3,0.4,0.6,0.6,0.7,1.2
			c0,0.6,0,1.1,0,1.7c0,0,0,0.1,0,0.1c-0.1,0.1-0.7-0.7-0.8-0.9c-0.1-0.2-0.2-0.6-0.2-0.6c0-0.1-0.2,0-0.2,0.1c0,0.1,0,0.2,0,0.3
			c0,0.3,0.1,0.4,0.2,0.7c0.1,0.2,0.3,0.4,0.5,0.6c0.1,0.1,0.2,0.2,0.3,0.3c0.4,0.3,0.5,0.8,0.6,1.2c-0.3-0.1-0.5-0.3-0.8-0.4
			c-0.1,0-0.3-0.2-0.3-0.1c0,0.1,0.1,0.3,0.2,0.3c0.2,0.2,0.5,0.3,0.7,0.4c0.4,0.3,0.8,0.6,1,1c0.1,0.3,0.2,0.7,0,1.1
			c-0.2-0.2-0.3-0.4-0.4-0.5c-0.5-0.4-1.1-0.7-1.6-1.1c-0.1-0.1-0.2-0.3-0.3-0.5c-0.1-0.2-0.1-0.5-0.2-0.8c-0.1-0.2-0.3-0.5-0.3-0.7
			c-0.1-0.2-0.1-0.4-0.2-0.6c-0.1-0.2-0.2-0.3-0.2-0.5c0-0.2,0-0.4,0-0.6c0-0.2,0-0.4-0.1-0.7c-0.1-0.3-0.3-0.7-0.5-0.9
			c-0.3-0.3-0.6-0.5-1-0.6c-0.1,0.3-0.2,0.7-0.1,1c0,0.3,0.1,0.7,0.3,0.9c0.2,0.2,0.4,0.5,0.6,0.6c0.3,0.2,0.6,0.3,0.8,0.6
			c0.1,0.2,0.2,0.4,0.2,0.6c0,0.2-0.2,0.4-0.4,0.4c-0.1,0-0.2-0.2-0.3-0.3c-0.2-0.2-0.2,0.2-0.1,0.3c0.2,0.3,0.6,0.3,0.9,0.3
			c0.5,0.1,0.5,0.6,0.6,1c0.1,0.3,0.2,0.5,0.4,0.6c0.2,0.2,0.5,0.4,0.7,0.6c0.1,0.1,0.3,0.2,0.4,0.4c0.3,0.3,0.6,0.6,0.8,0.9
			c0.2,0.3,0.5,0.8,0.6,1.6l-0.3,0.1c0,0,0.1-0.5-0.6-0.8C58,33,57.1,33,57.1,33s0,0.9,1.1,1.6c0.3,0.2,0.9-0.2,0.9-0.2
			s0.3-0.1,0.3,0c0.1,0.4,0.2,0.9,0.4,1.3c0.2,0.5,0.9,1.4,0.7,1.5c-0.1,0.1-0.9,0.1-1.1,0c-0.1-0.1-0.2-0.4-0.3-0.3
			c-0.1,0.1,0,0.3,0.1,0.4c0.1,0.2,0.3,0.4,1.5,0.2c0.1,0,0.2,0.1,0.3,0.1c0.3,0.1,0.7,0.1,1.1,0c0.5-0.1,1,0.2,1.4,0.6
			c0.5,0.6,0.9,1.2,1,2c0.1,0.7,0.3,1.5,0.5,2.2c0.1,0.5,0.1,1.1,0.1,1.6c0,0-0.1,0-0.1,0c0,0-0.1,0-0.1-0.1c-0.2-0.3-0.4-0.7-0.7-1
			c-0.3-0.5-0.8-0.8-0.9-1.4c0-0.1-0.1-0.5-0.1-0.5s0.4-0.2,0.1-1.3c-0.3-1-1.4-1.5-1.4-1.5c0,0.5-0.1,1.3,0,1.8
			c0.4,1.2,1.1,1.1,1.1,1.1s0,0.1,0,0.5c-0.2-0.1-0.3-0.1-0.4-0.2c-0.4-0.3-0.7-0.5-1.2-0.6c-0.5-0.1-1-0.3-1.3-0.8
			c-0.2-0.3-0.4-0.5-0.6-0.8c-0.2-0.3-0.4-0.6-0.4-0.9c0-0.3-0.1-0.7-0.3-1c-0.4-0.5-0.9-0.6-1.5-1.1c0,0.7-0.1,1.7,0.3,2.2
			c0.3,0.4,0.7,0.5,1.1,0.6c0.3,0,0.4,0.2,0.5,0.4c0.1,0.3,0.4,0.6,0.6,0.8c0.2,0.2,0.4,0.7,0.4,0.7s0.1,0.1,0,0.1
			c0,0-0.4-0.1-0.5-0.2c-0.3-0.5-1-0.4-1.3-0.8c0.1,0.2,0.2,0.5,0.5,0.5c0.3,0,0.5,0.2,0.7,0.4c0.1,0.2,0.4,0.2,0.6,0.3
			c0.2,0,0.4,0.1,0.6,0.1c0.2,0.1,0.4,0.2,0.5,0.2c0.3,0.1,0.6,0.1,0.8,0.2c0.4,0.3,0.9,0.6,1.1,1.1c0.1,0.2,0.3,0.3,0.3,0.5
			c0.2,0.5,0.4,1,0.8,1.4c0.4,0.4,0.6,1,0.8,1.6c0.1,0.5,0.2,0.9,0.2,1.4c0.1,0.4,0.1,0.9,0.2,1.3c0,0-0.1,0-0.1,0.1
			c-0.2-0.1-0.3-0.3-0.5-0.4c-0.2-0.2-0.4-0.5-0.7-0.6c-0.4-0.2-0.8-0.4-1.2-0.6c-0.6-0.3-0.9-1-0.5-1.6c0.1-0.1,0.3-0.2,0.4-0.4
			c0.2-0.2,0.2-0.4,0-0.6c-0.2-0.1-0.5,0.6-0.8,0.9c0,0.1-0.1,0.2-0.1,0.2c0-0.3,0-0.5,0.1-0.8c0.1-0.3,0.1-0.4-0.1-0.7
			c0,0,0.5-0.6-0.1-1.5c-0.2-0.3-1.1-0.7-1.4-0.9c0.1,0.2,0,0.8,0,1c0,0.6,0.4,1.3,1.2,1.4c0,0.1,0.1,0.2,0.1,0.5
			c-0.1,0.2,0,0.4,0,0.6c0,0.4-0.1,0.7,0,1.2c-0.4-0.3-0.7-0.6-0.9-1c-0.1-0.3-0.2-0.5-0.4-0.8c-0.4-0.6-0.8-1.2-1.1-1.9
			c-0.1-0.2-0.2-0.4-0.3-0.6c-0.3-0.4-0.7-0.8-1.1-1.2c-0.4-0.5-0.9-1-1.1-1.7c-0.2-0.4-0.2-0.7-0.2-1.1c0-0.2,0-0.7,0-0.9
			c-0.1-0.1-0.2,0.1-0.2,0.2c-0.1,0.3,0,0.6-0.1,0.9c0,0-0.1-0.2-0.1-0.3c-0.2-0.6-0.4-1.1-0.4-1.7c0-0.1-0.1-0.7-0.1-0.8
			c0-0.2-0.1-0.4-0.1-0.6c0-0.2,0.1-0.5,0.1-0.7c0-0.3,0-0.6,0-0.9c0-0.4-0.1-0.9-0.1-1.1c1.4-0.1,0.3-1.8,0.2-1.9
			c-0.1,0.1-0.6,0.9-0.3,1.7c0,0-0.2-0.5-0.3-0.7c0-0.2-0.1-0.4-0.1-0.4c-0.4-0.9-0.6-1.6-1.3-2.4c-0.2-0.3-0.5-0.6-0.7-1
			c0-0.4,0-1.1-0.3-1.5c-0.2-0.4-0.8-0.8-1.3-0.9c0,0.2-0.4,1,0.1,1.8c0.5,0.7,1,0.7,1.2,0.8c0.7,0.9,1.5,2.3,1.8,3.4
			c0.1,0.4,0.2,0.8,0.3,1.2c0,0.1,0,0.2-0.1,0.2c0,0-0.1,0-0.2,0c-0.3-0.2-0.5-0.4-0.8-0.6c-0.3-0.2-0.6-0.3-0.6-0.3
			c0-0.7,0.8-1.1,0-2.2c-0.1-0.2-0.5-0.5-0.7-0.7c0,0.4-0.1,0.6-0.1,0.9c0,0.3-0.1,0.7,0,0.9c0.1,0.4,0.5,0.7,0.6,1.1
			c-0.2,0-0.8-0.2-1-0.1c-0.5,0.1-0.8-0.1-1.1-0.4c-0.2-0.2-0.4-0.4-0.5-0.7c0.1-0.3,0.2-1.2-0.1-1.6c-0.3-0.5-1.2-0.8-1.3-1
			c-0.1,0.4-0.1,1.2,0.1,1.8c0.2,0.6,0.5,1,1.1,1c0.1,0.1,0.1,0.3,0.2,0.3c0.3,0.3,0.5,0.8,1.2,0.8c-0.3,0.1-1,0.5-1,0.6
			c-0.1,0.1,0.1,0.2,0.1,0.1c0.5-0.2,0.4-0.4,1.5-0.8c0.1,0,0.1,0,0.2,0c0.5,0.2,0.9,0.4,1.3,0.6c0.2,0.1,0.4,0.2,0.6,0.4
			c0.2,0.2,0.2,0.4,0.3,0.6c0.1,0.3,0.3,0.6,0.4,0.9c0,0.4,0.1,1.6,0.1,2c-0.5-1-1.5-1.7-1.8-1.8c0.1,0.5,0.1,0.8,0.1,1.1
			c0,0.3,0.1,0.6,0.2,0.9c0.1,0.4,0.6,0.9,1.1,0.8c0.3,0,0.5-0.2,0.6-0.4c0.2,0.6,0.3,1.1,0.5,1.6c0.2,0.5,0.4,1,0.7,1.5
			c-0.2-0.1-0.4-0.2-0.6-0.2c-0.4-0.1-0.8-0.2-1.2-0.2c-0.4,0-0.7-0.1-0.9-0.4c-0.1-0.2-0.4-0.3-0.4-0.7c0-0.4-0.2-0.8-0.5-1.1
			c-0.2-0.2-0.2-0.3-0.3-0.5c-0.1-0.2-0.1-0.2-0.2-0.6c0-0.3-0.3-0.6-0.3-0.9c0.2-0.5,0.3-0.9,0.1-1.3c-0.3-0.4-0.7-0.7-1.1-1
			c-0.2,0.8-0.1,1.3-0.1,1.4c0.2,0.6,0.6,0.7,0.8,0.9c0.1,0.1,0.2,0.3,0.3,0.5c0,0.1,0.1,0.4,0.1,0.4c0.1,0.3,0.1,0.4,0.2,0.5
			c0.1,0.1,0,0.2,0.1,0.3c-0.1,0-0.6-0.1-0.8-0.1c-0.3-0.1-0.6-0.2-1-0.1c-0.2,0-0.4,0.1-0.2,0.3c0.1,0.1,0.7-0.1,1,0.1
			c0.3,0.1,0.6,0,0.8,0.2c0.2,0.1,0.5,0.1,0.6,0.4c0.1,0.5,0.2,0.9,0.4,1.4c0,0,0,0,0,0c0,0-0.1,0-0.1,0c-0.7-0.4-1.5-0.4-2.3-0.5
			c-0.5,0-1-0.1-1.4-0.3c-0.5-0.1-0.7-0.6-0.6-1.1c0.1-0.3,0.1-0.8,0-1.2c-0.1-0.7,0-1.1-0.1-1.8c0-0.2,0-0.4,0-0.6
			c-0.1-0.2,0-0.5,0.1-0.7c0.2-0.3,0-0.9,0-0.9c-0.1,0,0,0.4,0,0.5c-0.1,0.3-0.2,0.3-0.3,0.6c-0.1-0.1-0.2-0.3-0.3-0.5
			c-0.2-0.2-0.3-0.4-0.4-0.6c0-0.2,0-0.8-0.3-1.2c-0.4-0.4-1.8-1.2-1.8-1.2s0,0.9,0.2,1.4c0.3,0.7,0.9,1.2,1.6,1.2
			c0.1,0,0.1,0.1,0.2,0.1c0.3,0.4,0.6,0.7,0.8,1.1c0.1,0.3,0.1,1.3,0,1.8c-0.3-0.3-0.5-1.4-0.8-1.7c-0.3-0.3-0.7-0.4-1.2-0.5
			c0,0.2,0,1.5,0.3,1.8c0.4,0.4,0.9,0.6,1.6,0.6c0,0.1,0,0.2,0,0.2c0.1,0.3,0.1,0.7,0.1,1c0,0.3-0.1,0.7-0.2,1c0,0-0.1,0-0.1-0.1
			c-0.2-0.1-0.4-0.3-0.7-0.4c-0.2-0.1-0.4-0.2-0.6-0.3c-0.3-0.4-0.6-0.8-1.2-1c-0.1,0-0.1-0.1-0.1-0.2c0-0.4-0.2-0.7-0.5-0.9
			c-0.7-0.6-1.5-0.7-2.5-0.7c0.1,0.3,0.2,0.5,0.4,0.7c0.1,0.2,0.2,0.4,0.4,0.6c0.6,0.7,1.5,0.7,2.2,0.8c0.3,0,0.8,0.4,0.9,0.7
			c-0.8,0.1-1.1,0.1-1.1,0.3c0,0.2,0.4,0,0.6,0c0.2,0,0.4-0.1,0.6,0c0.1,0,0.3,0.2,0.4,0.3c0.1,0,0.3,0.1,0.4,0.2
			c0.2,0.1,0.3,0.1,0.5,0.2c0.9,0.8,2.1,1.1,3.3,1.1c0.4,0,0.8,0.1,1.3,0.1c-0.1,0.1-0.2,0.3-0.2,0.4c-0.1,0.2-0.3,0.4-0.5,0.3
			c-0.1,0-0.5-0.1-0.3,0.1c0.5,0.2,0.8,0.2,1-0.1c0.4-0.5,0.4-0.5,1-0.3c0.5,0.2,1,0.4,1.5,0.3c0.1,0,0.2,0,0.2,0
			c0.6,0.1,1.2,0.4,1.7,0.7c0.4,0.3,0.9,0.4,1.1,0.9c0.1,0.3,0.4,0.5,0.5,0.7c0.2,0.2,0.3,0.4,0.5,0.6c-0.2,0-0.4-0.1-0.6-0.2
			c-0.3-0.2-0.6-0.3-0.8-0.6c-0.3-0.5-0.7-0.6-1.1-0.6c-0.2,0-0.4,0-0.5,0c-0.1,0-0.2,0-0.2,0c0.1,0.1,0.1,0.2,0.2,0.2
			c0.1,0,0.1,0,0.2,0c0.4,0,0.8-0.1,1.1,0.2c0.3,0.4,0.6,0.7,1,0.9c0.4,0.2,0.8,0.6,1.1,0.9c0.3,0.3,0.7,0.5,0.8,1.1
			c0,0.2,0.1,0.3,0.2,0.5c0.1,0.2,0.3,0.4,0.4,0.6c0.3,0.6,0.8,1.1,1.5,1.3c0.2,0,0.4,0.1,0.5,0.2c0.9,0.4,1.5,1,2.1,1.8
			c0.3,0.4,0.7,0.7,0.8,1.3c0.1,0.4,0.2,0.8,0.3,1.2c-0.1,0-0.1,0-0.1,0c-0.3-0.4-0.6-0.7-0.9-1.1c-0.4-0.4-0.8-0.7-1.2-1
			c-0.5-0.3-1.1-0.6-1.6-0.8c-0.3-0.1-0.6-0.3-0.8-0.3c-0.7,0-1.2-0.2-1.7-0.6c-0.2-0.1-0.3-0.3-0.4-0.5c-0.2-0.3-0.1-0.5,0.1-0.7
			c0.5-0.4,0.5-1.2,0.1-1.6c-0.2-0.2-0.4-0.5-0.6-0.7c-0.1,0.4-0.3,0.7-0.4,1c-0.2,0.6-0.2,1.2,0.5,1.7c0,0.5,0.3,0.6,0.4,0.8
			c0,0-0.3,0-0.4-0.1c-0.1-0.1-0.4-0.1-0.5-0.3c-0.2-0.1-0.4-0.2-0.5-0.4c-0.2-0.2-0.3-0.6-0.5-0.8c-0.3-0.3-0.3-0.7-0.1-1.1
			c0.3-0.5,0.2-1.1,0.2-1.6c-0.4,0.1-0.2,0.4-0.3,0.6c0,0.1,0,0.2,0,0.3c0,0-0.1,0-0.1,0c0,0,0-0.1,0-0.1c0-0.1,0-0.1,0-0.2
			c0-0.1-0.1-0.2-0.1-0.3c-0.2-0.3-0.5-0.5-0.8-0.7c-0.3-0.3-0.6-0.6-0.7-1c0,0,0,0,0-0.1c0-0.4-0.1-0.5-0.4-1.1
			c-0.4-0.8-1.7-1.1-1.7-1.1s-0.2,1.2,0.3,2c0.4,0.6,1.3,0.7,1.6,0.7c0,0,0,0,0,0c0.4,0.5,1,1,1.3,1.7c0.1,0.2,0.2,0.3,0.2,0.7
			c0,0.4,0,1,0.1,1.2c0.1,0.2,0.1,0.4,0.3,0.5c-0.1,0-0.3-0.1-0.4-0.1C56,47,55.5,46.8,55,46.6c0,0-0.1,0-0.1-0.1
			c-0.2-0.2-0.4-0.5-0.6-0.7c-0.1-0.2-0.3-0.4-0.4-0.7c-0.1-0.4-0.2-0.8-0.3-1.2c-0.1-0.2-0.2-0.3-0.4-0.1c0,0,0.1,0.3,0.1,0.4
			c0,0.1,0.1,0.3,0.1,0.4c0,0.1,0.1,0.3,0.1,0.4c0,0.1,0.1,0.3,0.1,0.4c-0.1,0-0.1,0-0.2-0.1c-0.2-0.1-0.4-0.3-0.6-0.5
			c-0.2-0.1-0.4-0.3-0.7-0.4c-0.1-0.1-0.3-0.1-0.4-0.2c-0.8-0.2-0.9-0.8-0.9-1.6c0-0.2,0-0.4,0.1-0.6c0.1-0.2,0.2-0.5,0.2-0.9
			c0-0.6-0.6-1.1-0.8-1.3c-0.2-0.2-0.7-0.4-0.7-0.4s0,0.1-0.1,0.3c-0.1,0.4-0.1,1.3,0.2,1.7c0.3,0.3,0.8,0.7,0.8,0.7l0,0
			c0,0.1,0,0.2,0,0.4c-0.1,0.5,0,0.5,0,1c0,0.2,0,0.4,0.1,0.6c-0.6,0-1.1-0.1-1.6-0.5c-0.1-0.1-0.2-0.1-0.3-0.3
			c-0.2-0.2-0.3-0.3-0.5-0.3c-0.2,0-0.4-0.2-0.5-0.3c-0.1,0-0.2-0.2-0.2-0.5c0-0.1-0.1-0.4-0.1-0.5c-0.1-0.6-0.1-1-0.3-1.5
			c-0.1-0.2-0.1-0.3-0.2-0.5c-0.1-0.2-0.2-0.4-0.4-0.5c-0.2-0.2-0.5-0.2-0.7-0.3c-0.3-0.1-0.6-0.2-1-0.3c0,0-0.1,0.7,0.6,1.6
			c0.5,0.7,1.4,0.9,1.7,0.9c0,0,0,0,0.1,0.1c0.1,0.2,0.1,0.4,0.1,0.6c0,0.2,0,0.5,0,0.7c0,0.5-0.6,0.4-0.9,0.4
			c-0.4-0.1-0.7-0.2-1.1-0.4c-0.2-0.1-0.6-0.4-0.7-0.5c-0.3-0.3-0.4-0.3-0.6-0.7c-0.1-0.1-0.1-0.2-0.2-0.3c0-0.3,0-1.2-0.6-1.9
			c-0.7-0.9-1.8-0.9-2.2-1.1c0.1,0.2,0,1.2,0.8,2.2c0.8,1,1.7,0.9,1.7,0.9l0.1,0c0,0,0,0,0,0c0.3,0.4,0.7,1.2,1.4,1.5
			c0.4,0.2,0.8,0.4,1.2,0.5c0.5,0.1,1.1,0.1,1.6,0.2c0.2,0,0.5,0.1,0.7,0.3c0.3,0.2,0.6,0.5,0.9,0.8c-0.2,0.2-0.8,0.8-1,0.9
			c-0.1,0-0.6,0.1-0.8,0c0,0-0.2-0.1-0.2-0.2c0,0-0.2-1.3-2.3-1.3c-0.1,0.2,0,0.5,0,0.7c0.1,0.2,0.2,0.4,0.3,0.5
			c0.3,0.2,0.7,0.4,1.1,0.4c0.3,0,0.4,0,0.7-0.1c0,0,0.2,0.3,0.2,0.3c-0.7,0.3-1.4,0.3-2.1,0.1c0,0-0.5-0.1-0.6-0.1
			c-0.2,0-0.5,0-0.7-0.1c-0.2-0.1-0.5-0.2-0.6-0.5c-0.2-0.4-0.4-0.9-0.8-1.2c0,0-0.3-1.1-1.5-1.3c-1.2-0.2-1.5-0.1-1.5-0.1
			s0.2,0.9,0.9,1.4c0.5,0.5,1.2,0.6,2,0.6c0.2,0,0.4,0,0.4,0.2c0.2,0.5,0.4,0.9,0.9,1.2c-0.5,0.1-1,0.2-1.5,0
			c-0.1-0.1-0.9-0.8-2-0.5c-1.2,0.3-1.3,0.4-1.3,0.4s0.4,1,1.5,1.1c0.9,0,1.5-0.3,1.8-0.6c0.2-0.1,0.4-0.1,0.6-0.1
			c0.2,0,0.4,0.1,0.6,0c0.1,0,0.1,0,0.2,0c0.1,0,0.2,0.1,0.1,0.1c-0.1,0-0.7,0.4-0.9,0.5c-0.2,0.1-0.7,0.4-0.9,0.5
			c-0.2,0.1-0.6,0.2-0.8,0.3c-0.2,0-0.5,0.1-0.5,0.4c0,0.1,0.6,0,0.8-0.1c0.1-0.1,0.6-0.3,0.6-0.2c-0.1,0.1-0.3,0.2-0.3,0.3
			c0,0.2,0.3,0.1,0.3,0c0.2-0.2,0.4-0.4,0.4-0.5c0.1-0.2,0.4-0.3,0.7-0.5c0.4-0.2,0.7-0.4,1-0.7c0.1-0.1,0.5-0.1,0.7-0.1
			c0.4,0.1,0.4,0.2,0.9,0.3c-0.2,0.2-0.5,0.4-0.6,0.5c-0.1,0.1-0.2,0.2-0.3,0.2c-0.1,0-1.1,0-1.7,0.7c-0.6,0.7-0.7,1.2-0.7,1.2
			s1.9,1.2,2.6-1.5c0.1-0.2,0.3-0.4,0.5-0.5c0.1-0.1,0.2-0.1,0.3-0.2c0.4-0.1,0.9-0.5,1.3-0.6c0.7-0.1,1.1-0.3,1.7-0.6
			c0.1-0.1,0.4-0.3,0.5-0.4c0.1-0.1,0.4-0.2,0.5-0.3c0.2-0.1,1.2-0.2,1.4-0.1c0.1,0-1.7,0.3-2,1.8c0.1,0,1.3,0.5,2.1-0.4
			c0.3-0.4,0.2-1.2,0.2-1.3c0.2,0.1,0.3,0.1,0.5,0.2c0.3,0.2,0.6,0.3,0.9,0.5c0.5,0.4,0.9,0.9,1.4,1.3c-0.7,0.2-1,0.7-1.3,1
			c-0.3,0.3-0.8,0.4-0.8,0.5c-0.2,0.1-0.7,0.1-0.7,0.1S51,48.6,50.5,48c-0.1-0.1-0.3-0.3-0.4-0.4c-0.2-0.1-0.6-0.1-0.6-0.1
			s-0.5-0.1-0.7-0.1c-0.1,0-0.1,0.1-0.1,0.1c0,0.2,0.2,0.2,0.4,0.2c0.4,0,0.9,0.2,1.2,0.6c0.1,0.2,0.3,0.4,0.5,0.6
			c-0.1,0.2-0.3,0.4-0.5,0.6c-0.1,0.2-0.2,0.1-0.3,0c-0.1-0.1-0.3-0.5-0.6-0.7c-0.7-0.4-1.7-0.2-1.7-0.2s0.3,0.8,0.5,1
			c0.3,0.3,1,0.6,1.8,0.1c-0.2,0.1-0.8,0.7-0.9,0.7c-0.5,0.1-1.1,0-1.6-0.2c-0.1-0.1-0.3-0.1-0.4-0.1C47,50,46.5,50,46.5,50
			s-0.5-0.4-0.6-0.5c-0.1-0.1-0.3-0.2-0.4-0.4c0,0-0.2-0.1-0.2,0c0,0,0,0.1,0,0.1c0.2,0.3,0.8,0.9,0.8,0.9s-0.5,0-0.7,0
			c-0.2,0-0.5,0.3-0.8,0.6c-0.2,0.2-0.9,0.4-0.9,0.4s-0.9-0.5-1.2-0.7c-0.6-0.4-0.9-0.5-1.5-0.5c-0.9,0-2,0.6-2,0.6s0.4,1.2,1.8,1
			c1.1-0.1,1.6-0.9,1.6-0.9s0.8,0.5,1.1,0.7c-0.1,0.2-0.2,0.5-0.3,0.7c0,0.1-0.2,0.2-0.3,0.2c-0.4,0.1-1.3,0.4-1.5,0.5
			c-0.1,0.2,0.2,0.2,0.2,0.1c0.4-0.1,1.2-0.2,1.6-0.5c0.3-0.3,0.5-1,0.5-1s0.7-0.2,1.2-0.5c0.5-0.4,1-0.4,1.6-0.1
			c-0.4,0.4-0.8,0.4-1.3,0.6c-0.1,0-0.2,0.1-0.2,0.2c0,0.1,0.8,0,1.2-0.2c0.2-0.1,0.5-0.3,0.7-0.3c0.4-0.1,0.8,0,1.1,0.1
			c0.3,0.1,1,0.1,1,0.1s-0.1,0.6-0.3,0.8C48.6,52,48.2,52,48.1,52c-0.7,0-1.2,0.1-1.7,0.5c-0.2,0.1-0.8,0.1-1.1-0.1
			c-0.1,0-0.2-0.1-0.3,0c-0.1,0.2,0.1,0.2,0.2,0.3c0.3,0.2,0.6,0.1,0.9,0.2c-0.1,0.1-0.1,0.2-0.1,0.3c0,0,0,0-0.1,0.1
			c-0.5,0.4-0.9,0.6-1.6,0.5c-0.4,0-0.9,0.2-1.1,0.3C43.1,54,43,54.1,42.8,54c-0.6-0.1-1.1-0.2-1.7,0c-0.8,0.3-1.3,0.7-1.3,0.7
			s0.4,0.5,1.1,0.6c0.6,0.1,1.1-0.1,1.5-0.4c0.4-0.4,0.9-0.6,1.4-0.9c0.4-0.1,1.2,0,1.6-0.1c0,0.1-0.6,0.5-0.7,0.8
			c-0.1,0.5-0.7,1.2-1.4,1.1c-0.7-0.1-1.2,0.2-1.6,0.7c-0.2,0.3-0.7,1-0.7,1s1.4,0.8,2.4-0.5c0.2-0.3,0.3-0.6,0.6-0.9
			c0.3-0.4,0.7-0.7,1-1.2c0.2-0.4,0.6-0.6,0.9-1c0.1-0.2,0.3-0.3,0.4-0.5c0.3-0.6,0.8-0.8,1.4-1c0,0.3,0,0.6,0,0.9
			c0,0.1-0.1,0.1-0.1,0.2c-0.3,0.3-0.5,0.5-0.8,0.8c-0.5,0.5-0.8,1.1-0.5,1.9c0.1,0.1,0.1,0.5,0.1,0.5s1.1-0.3,1.3-1.3
			c0.2-0.8-0.3-1.3-0.3-1.3s0.2-0.3,0.3-0.4c0.1-0.1,0.1-0.4,0.1-0.6c0-0.3,0.1-0.7,0.1-0.7s0.7,0,1.2-0.1c0.1,0,0.2-0.2,0.3-0.3
			c0.1-0.2,0.3-0.5,0.4-0.7c0.1-0.2,0.2-0.3,0.3-0.5c0.2-0.4,0.4-0.6,0.8-0.8c0.1,0.2,0,0.3-0.1,0.5c-0.3,0.4-0.1,1,0.3,1.1
			c-0.1-0.2-0.1-0.3-0.1-0.4c0-0.2-0.1-0.4,0-0.5c0.1-0.3,0.3-0.5,0.2-0.9c0,0,0-0.1,0-0.1c0.2-0.3,0.4-0.4,0.8-0.5
			c0.6-0.1,1.3-0.3,1.7-0.9c0.2-0.3,0.5-0.5,0.9-0.5c0.2,0,0.4-0.1,0.6-0.1c0.7-0.1,1.3,0,1.8,0.4c0.4,0.3,0.6,0.5,1.3,0.8
			c0.6,0.3,1.1,0.4,1.6,0.7c0.4,0.2,0.8,0.3,1.2,0.5c0.4,0.1,0.8,0.2,1.1,0.6c-0.1,0-0.2,0-0.3,0c-0.4-0.1-0.8-0.3-1.2-0.1
			c-0.6,0.2-1.2,0.6-1.9,0.5c-0.2,0-0.5-0.1-0.7,0c-1,0.3-1.1-0.3-1.4-0.6c-0.1-0.1-0.2-0.1-0.3-0.3c0-0.2,0.1-0.4,0.1-0.6
			c0-0.2-0.1-0.3-0.2-0.5c-0.2-0.3-0.4-0.4-0.7-0.6c-0.1,0-0.6-0.4-0.6-0.4c0,0-0.2,0.9-0.2,1.1c0,0.4,0.4,1,1.2,1.2
			c0.3,0.2,0.6,0.5,0.8,0.8c0,0-0.1,0.1-0.1,0.1c-0.3,0.1-0.6,0.2-1,0.1c-0.6-0.1-1.2-0.3-1.5-0.9c0,0-0.8-0.9-1.8-0.2
			c-1,0.7-0.8,0.8-0.8,0.8l0.4,0.2c0,0,0.1,0,0.1,0.1c0,0,0,0,0,0c0.5,0.3,1.4,0.3,1.8-0.1c0.1-0.1,0.3-0.2,0.4-0.2
			c0.3,0.1,0.6,0.3,1,0.6c-0.3,0.2-0.6,0.3-0.9,0.5c-0.2,0.1-0.5,0.2-0.8,0.3c-0.5,0.2-0.5,0.9-0.5,0.9c0.1,0,0.2-0.4,0.4-0.6
			c0.2-0.2,0.8-0.4,0.8-0.4c-0.1,0.1-0.2,0.2-0.5,0.5c-0.3,0.4-0.4,0.9-0.3,1.4c0.1,0.4,0.3,0.9,0.3,0.9c0.1-0.1,0.6-0.6,0.9-1.3
			c0.2-0.5-0.1-1.4-0.2-1.4c0.1-0.1,0.1-0.1,0.5-0.3c0.2-0.1,0.5-0.2,0.7-0.3c0.5-0.3,1.3-0.1,1.5-0.3c-0.2,0.2-0.3,0.4-0.4,0.7
			c0,0.1-0.1,0.2,0,0.3c0.1,0.1,0.2-0.1,0.3-0.2c0.2-0.2,0.4-0.5,0.6-0.6c0.4-0.3,0.8-0.1,1.3-0.1c0,0.1,0.1,0.2,0.1,0.3
			c0,0.3-0.1,0.4-0.4,0.5c-0.5,0.3-0.9,0.6-1.2,1.2c-0.1,0.3-0.2,0.6-0.3,0.9c0,0.1-0.1,0.2,0,0.3c0.1,0,0.2-0.1,0.3-0.1
			c0.1-0.2,0.2-0.4,0.3-0.6c0.2-0.7,0.7-1,1.2-1.3c0.4-0.2,0.6-0.4,0.7-0.8c0-0.1,0.1-0.3,0.2-0.3c0.5-0.4,1.1-0.5,1.7-0.2
			c0.3,0.1,0.5,0.1,0.7,0c0.2-0.1,0.4-0.2,0.6-0.1c0.7,0.2,0.7,0.4,1,1.1c0.2,0.4,0.4,0.4,0.6,0.7c0.1,0.2,0.4,0.4,0.5,0.7
			c0.1,0.2,0,6.4,0,11.9L54.7,75.8l-0.8,0l1-2.4l-1.3,2.4l-1.9,0l1.6-3.3l-2,3.3l-1.9,0l2.4-4.2l-2.9,4.2l-2,0l3.4-5.2L46,75.8l-2,0
			l4.7-6.3L43,75.8l-2,0l6.4-7.5l-7.8,7.5l-2,0l8.5-8.8l-10.3,8.8l-2,0l11.2-10.2L31.4,75.8l-2,0l14.5-11.6L26.1,75.8l-2,0
			l18.6-13.1L20.7,75.3c0,0.2,0,2,0,2.6h0c0,29.7,22.5,52.8,46.3,52.8c23.8,0,46.6-23.1,46.6-52.8C113.7,77.3,113.7,75.5,113.7,75.3
			z M74.5,76.7l-4.1,3.9l-0.7-0.7l4.1-3.9L74.5,76.7z M66.1,75.4l0.7,0.7L62.6,80l-0.7-0.7L66.1,75.4z M61.6,78.9l-0.7-0.7l4.1-3.9
			l0.7,0.7L61.6,78.9z M64.2,79.3l4,4.3l-0.7,0.7l-4-4.3L64.2,79.3z M64.6,79l0.7-0.7l4,4.3l-0.7,0.7L64.6,79z M65.7,77.9l0.7-0.7
			l4,4.3l-0.7,0.7L65.7,77.9z M73.5,75.6l-4.1,3.9l-0.7-0.7l4.1-3.9L73.5,75.6z M72.4,74.5l-4.1,3.9l-0.7-0.7l4.1-3.9L72.4,74.5z
			 M67,69.6l3.9,4.2l-0.7,0.7l-3.9-4.2L67,69.6z M65.9,70.6l3.9,4.2L69,75.5l-3.9-4.2L65.9,70.6z M64.8,71.6l3.9,4.2l-0.7,0.7
			L64,72.3L64.8,71.6z M64,73.2l0.7,0.7l-4.1,3.8L59.9,77L64,73.2z M27.4,78.2h2.4c0.1,0.6,0.3,1.5,0.3,1.8c-0.1,0.3-1.2,0.2-2,0.2
			C27.5,80.2,27.4,78.9,27.4,78.2z M29.3,83.9c-0.6-0.3-1.1-1.6-0.9-2.3c0.2-0.7,1.2-0.7,1.2-0.7c1.2-0.2,1.8,0.1,1.4,0.6
			C30.5,81.9,29.9,84.2,29.3,83.9z M31,90.6L31,90.6c-0.5-0.5-0.9-2.2-1-2.6c-0.1-0.5-0.1-1.6,0.6-1.8c0.1,0,0.3-0.1,0.4-0.2
			c0.6-0.2,0.8,1.3,0.9,2.1c0,0.3,0.1,0.9,0.9,0.8c0,0,0.1,0,0.1,0c0.3-0.1,0.6,0,0.9,0.3c0.5,0.7,0.5,1.5,0.7,2.5
			c0.1,0.4-0.4,1.4-1,1.4C32.9,93.1,31.3,91,31,90.6z M35.8,100.5c-0.1,0.2-0.6,0.1-0.8-0.2c-0.2-0.2-0.7-1-0.8-1.4
			c-0.1-0.4-0.2-0.9-0.2-1.6c0-0.4,0.4-0.5,0.7-0.6c0.4,0,0.8-0.1,1.2,0.3c0.2,0.2-0.4,1.1-0.4,1.4C35.4,99,36,100.1,35.8,100.5z
			 M35.3,95.8c-0.7-0.1-1.4-0.5-1.4-1.1c0.1-0.6,1.4-1.3,1.4-1.3s0.7,0.1,0.7,1C36.1,95.3,36,95.9,35.3,95.8z M35.9,90
			c-0.1-0.7-0.8-2.2-1.8-2.6c0,0-0.7,0-1.2-0.4c-0.5-0.5-0.9-0.7-0.6-1.2c0.3-0.4,0.9-0.5,1-0.9c0.1-0.5-0.5-0.7-1-0.7
			c-0.7,0-1.4-0.3-1.5-0.5c-0.3-1,1.5-1.7,2.1-2.1c0.5-0.3,0.4-1.6-0.5-1.6c-0.3,0-1.9-0.4-1.7-1.7h23.8l12.5,12.5
			c-0.4,1.9-1.3,7.3-1.6,7.5c-1.7,0.8-3.6-1.1-4.1-1.7c-0.8-0.8-2.1-0.6-1.1,0.3c0.8,0.7,2.9,3.1,3.7,4c0.4,0.5,0.8,0.9,1.2,1.3
			c0.7,0.8,0.2,0.9-0.2,1.3c-0.7,0.6-0.3,1.5-0.5,2.3c-0.3,1.2-1.9-0.2-2.4-0.6c-0.6-0.5-1.2-1.1-1.2-1.1c-0.5,0.4-0.5,0.9-0.2,1.6
			c0.2,0.4,1.9,3.4,1.7,3.8c-0.2,0.5-0.8,1.4-2.1,1.7c-1.2,0.3-1.8,0.1-2.9,0.6c-0.8,0.4-1.3,0.4-1.2,1.2c0.1,0.5-0.3,1-0.2,1.6
			c0.1,0.4-0.3,1.9-0.6,1.9c-0.4,0.1-2.2-1.3-3-1.5c-0.8-0.2-1.2,0-1.9,0c-0.1,0-0.3,0-0.5-0.1c-0.6-0.3-1.5-3.5-2.8-3.9
			c-1.1-0.4-2-0.2-2.9-1.1c-0.8-0.8-1.7-1.8-2-2.2l0.8-1c0.2-1.7,0-3,1.1-4.2c1.2-1.4-1.5-4.3-1.5-4.3s-0.2-1.4-1.9-2
			c-1.7-0.6-3.6-1.4-3.6-1.4C36.7,93.4,36.1,90.9,35.9,90z M41.2,101.1c0.1-0.6,1.3-0.7,1.3-0.7c0.8,1,0.3,2.1,0.3,2.1
			s-0.4,0.8-1,0.7C41.2,103.1,41.1,101.7,41.2,101.1z M40,98.6c-0.7-0.6-1.7-2.1-1-2.3c0.7-0.2,1.5,0.5,1.5,0.5
			c1.5,0.8,1.1,1.8,1.1,1.8S40.7,99.2,40,98.6z M37.4,100.9c-0.1-0.4-0.1-0.8,0-1.2c0.1-0.4,0.3-0.8,0.5-0.9c0.1,0,0.8,0.4,0.9,0.5
			c0.4,0.3,1.2,0.7,1.3,1.1c0,0.2-0.1,0.2-0.2,0.3c-0.7,0.2-0.6,0.2-1,0.7c-0.2,0.3-0.4,0.3-0.8,0.2
			C37.6,101.5,37.5,101.3,37.4,100.9z M39.6,106.1c-0.7-0.1-1.7-0.3-1.9-1.2c-0.1-0.5,0.7-0.8,1.1-1.1c0.4-0.4,0.3-0.7,1-0.7
			c0.6,0,0.5,0.6,0.5,0.9c0.1,0.3,0.3,1.2,0.4,1.7c0.1,0.5,0.3,0.7-0.2,0.9C40.1,106.8,39.8,106.4,39.6,106.1z M42.7,110.9
			c-0.5,0.1-0.9,0.1-1.3,0c-0.4-0.1-1.2-1.9-1.1-2.2c0.1-0.4,0.9-0.2,0.9-0.2C42.8,108.8,43.2,110.9,42.7,110.9z M45.8,115.9
			c-0.4-0.4-0.9-0.8-1-1.1c-0.4-0.7-0.9-1.2-1.3-1.9c-0.1-0.2,0-0.3,0.2-0.3c0.4-0.1,1-0.4,1.5-0.2c0.2,0.2,0.8,1.3,1,1.5
			c0.1,0.1,0.1,0.2,0.2,0.3C46.8,114.7,47.1,116.4,45.8,115.9z M71.5,123.2c-0.1,0.1-1.1,0.1-1.2,0.1c-0.8,0-1.4,0.4-2.2,0.5
			c-0.9,0.1-1.9-0.9-2.7-0.8c-0.6,0.1-1-0.1-1.6-0.3c-0.3-0.1-0.7-0.1-1-0.1c-1.2-0.1-1.3-0.4-2.3-1.1c-1.1-0.8-2.3-0.8-3.3-0.4
			c-0.9,0.4-1.1,0.6-2.3,0c-0.9-0.5-1.3-0.8-2.4-0.9c-1.3-0.2-1.5-0.8-2.5-1.5c-0.7-0.5-1.4-0.4-2.1-0.7c-0.3-0.1-0.6-0.5-0.9-0.9
			c-0.3-0.7,0.1-0.9,0.3-1.1c0.2-0.1,0.6-0.5,1.2-0.3c0,0,0.1,0,0.1,0c0.2,0.1,0.5,0.3,0.6,0.4c1.8,1,1.8,0.3,2.6,0.7
			c0.4,0.2,1.6,1.3,2.2,1.7c0.8,0.6,1.9,0.8,2.5,0.6c0.7-0.1,0.2-0.5,0.4-0.8c0.2-0.3,1.8-0.7,1-1.3c-0.8-0.6,0.2-1.7,0.6-2.1
			c0.4-0.4,0.8-2.4,1.1-2.5c0.1,0,0.2,0.2,0.4,0.2c0.5,0,2,0,2.4,0.2c0.1,0,0.2,0.1,0.3,0.2c1.1,1.1,0.9,1.3,2.5,1.3
			c0.6,0,1.1,0,1.1,0.8c0,1-0.6,1.2,0.4,2.3c0.3,0.4,1.3,1.1,1.5,1.3c0.1,0.2-0.1,0.8-0.1,1.1c0.1,0.4,0.1,1.2,0.7,1.4
			c0.6,0.2,0.5-0.8,0.8-1.1c0.5-0.4,2.2-1.7,3-0.8c0.1,0.1-1,2.4-1.3,2.6C70.8,122.5,71.4,122.9,71.5,123.2z M76.3,121.7
			c-0.8,0.4-0.7,0.2-1.4,0.9c-0.1,0.1-1,0.2-1.2,0.2c-0.2,0-0.4-0.1-0.4-0.7s0.5-1.1,0.6-1.1c0.2-0.1,1.1-0.7,1.4-0.5l0.1,0
			c0.1,0.1,0.2,0.1,0.4,0.1c0.2,0,0.4-0.1,0.5-0.2l0-0.1c0.1-0.2,0.5-0.5,0.7-0.2C77.2,120.4,76.7,121.5,76.3,121.7z M99.7,97.5
			c-1.6,5.7-5,9.6-9.7,11.2l-0.2,0.1l-0.2-0.1c-4.7-1.6-8.1-5.5-9.7-11.2c-1.2-4.3-1.1-8-1.1-8.1l0-0.5h0.5c0.7,0,1.2-0.2,1.6-0.5
			c0.5-0.5,0.5-1.3,0.5-1.3l0-0.6h1.9v-1.1h12.8v1.1h1.9l0,0.6c0,0.2,0.1,1.9,2.1,1.9h0.5l0,0.5C100.8,89.5,100.9,93.3,99.7,97.5z"
			/>
		<g>
			<path fill="#FFFFFF" d="M12,66.3l-0.4,0l0.3-2.5l0.4,0l0.3,0.8l2.8,0.3c1.6,0.2,2.4,1.2,2.2,3c-0.2,1.9-1.1,2.8-2.9,2.6l-2.9-0.3
				l-0.4,0.8l-0.4,0l0.4-3.6l0.4,0l0.2,0.8l2.9,0.3c1.2,0.1,1.7-0.3,1.8-1.2c0.1-0.9-0.4-1.4-1.4-1.6l-2.9-0.3L12,66.3z"/>
			<path fill="#FFFFFF" d="M13.1,61.4l-0.5,0.7L12.2,62l0.7-2.9l1.2-0.4l3.3-1.1l0-0.1l-3.1-0.7l-0.6,0.8l-0.4-0.1l0.6-2.6l0.4,0.1
				l0.2,0.9l5.1,1.2L19.2,59l-1.3,0.4l-3.5,1.2l0,0.1l3.3,0.8l0.6-0.8l0.4,0.1L18,63.4l-0.4-0.1l-0.2-0.9L13.1,61.4z"/>
			<path fill="#FFFFFF" d="M21,51.4l0.4,0.1L20.2,55l-0.4-0.1l0-0.9l-4.4-1.5l-0.5,0.7l-0.4-0.1l1.2-3.5l0.4,0.1l0,0.9l4.4,1.5
				L21,51.4z"/>
			<path fill="#FFFFFF" d="M23.6,46.5L23,47.9l-5.8-0.3l-0.6,0.6L16.2,48l1.5-3.4l0.4,0.2l-0.1,0.8l4.1,0.4l-2.8-2.7l-0.8,0.5
				l-0.4-0.2l1.1-2.5l0.4,0.2l0.1,1.1L23.6,46.5z"/>
			<path fill="#FFFFFF" d="M25,36.1l-0.2,0.4l-1.1,0.1c-0.5,0-0.9,0.2-1.2,0.7L22.1,38l1.7,1.1l0.1-0.2c0.3-0.4,0.2-0.8-0.1-1.2
				l-0.1-0.1l0.2-0.4l2,1.2l-0.2,0.4l-0.2,0c-0.5-0.1-0.8,0-1.1,0.4l-0.1,0.2l1.8,1.1l0.5-0.9c0.2-0.4,0.3-0.9,0.1-1.3l-0.4-1.2
				l0.3-0.3l1.7,1.3l-3.1,5.1L24.8,43l0.2-0.8l-4-2.4l-0.7,0.6L20,40l3-4.9L25,36.1z"/>
			<path fill="#FFFFFF" d="M29.6,31.7l0.1,0.1c0.6-0.6,1.1-0.8,1.8-0.5c0.6,0.2,0.8,0.3,1.1,0.3c0.2,0,0.4-0.1,0.6-0.2l0.3,0.3
				l-1,1.2c-0.4,0.5-0.8,0.5-1.6,0.3l-0.9-0.3c-0.5-0.2-0.8-0.1-1.1,0.4l-0.1,0.1l1.4,1.2l0.7-0.5l0.3,0.2L29.1,37l-0.3-0.3l0.3-0.8
				L25.5,33l-0.7,0.5l-0.3-0.3l2.6-3.2c0.9-1.1,1.8-1.3,2.5-0.7C30.2,29.7,30.3,30.5,29.6,31.7z M26.9,31.1l-0.3,0.3l1.7,1.4
				l0.2-0.3c0.4-0.5,0.4-1.1-0.2-1.6C27.9,30.5,27.4,30.5,26.9,31.1z"/>
			<path fill="#FFFFFF" d="M36.4,29.1c-0.5,0.5-1.1,0.8-1.7,1.1l0.1,0.4l-0.4,0.3l-1.6-1.6l0.5-0.5c1.3,0.4,2.1,0.3,2.6-0.2
				c0.4-0.4,0.5-0.9,0.2-1.2c-0.3-0.3-0.7-0.2-1.4,0.1c-0.3,0.2-0.7,0.4-1.1,0.5c-0.7,0.3-1.5,0.3-2.1-0.3c-0.9-0.9-0.5-2.3,0.3-3
				c0.5-0.4,1-0.7,1.4-0.9l-0.1-0.4l0.3-0.3l1.5,1.3l-0.4,0.5c-1.2-0.4-1.8-0.2-2.2,0.2c-0.4,0.3-0.4,0.8-0.1,1
				c0.3,0.3,0.6,0.3,1.2,0c0.3-0.1,0.7-0.4,1.2-0.5c0.8-0.3,1.6-0.5,2.3,0.3C37.7,26.9,37.3,28.2,36.4,29.1z"/>
			<path fill="#FFFFFF" d="M41.8,23.8l0.3,0.3l-2.9,2.2L38.9,26l0.5-0.7l-2.8-3.7l-0.8,0.3l-0.3-0.3l2.9-2.2l0.3,0.3l-0.5,0.7
				l2.8,3.7L41.8,23.8z"/>
			<path fill="#FFFFFF" d="M40.5,18.4L40.2,18l2.9-1.6c1.9-1.1,3.7-0.8,4.6,0.9c0.9,1.7,0.2,3.4-1.7,4.5l-2.8,1.6L43,23l0.6-0.6
				l-2.3-4.1L40.5,18.4z M43.3,17.1L43,17.2l2.3,4.2l0.4-0.2c0.8-0.5,1-1.4,0.2-2.8C45.1,17,44.2,16.6,43.3,17.1z"/>
			<path fill="#FFFFFF" d="M51.2,18.5l0.8,0.1l0.1,0.4l-2.4,0.8l-0.1-0.4l0.7-0.6l0.2-5.7l1.6-0.6l3.6,4.5l0.8,0.1l0.1,0.4l-3.2,1.1
				l-0.1-0.4l0.5-0.5l-0.6-0.8l-2,0.7L51.2,18.5z M51.3,14.4l-0.1,0l0,2.3l1.6-0.5L51.3,14.4z"/>
			<path fill="#FFFFFF" d="M56.5,11.6l-0.1-0.4l3.3-0.5c2.2-0.3,3.7,0.6,4,2.4c0.3,1.9-1,3.3-3.2,3.6l-3.2,0.5l-0.1-0.4l0.8-0.4
				l-0.7-4.6L56.5,11.6z M59.6,11.4l-0.4,0l0.7,4.8l0.5-0.1c0.9-0.2,1.4-1,1.2-2.6C61.4,11.9,60.6,11.2,59.6,11.4z"/>
			<path fill="#FFFFFF" d="M74.5,13L73.9,12c-0.3-0.5-0.6-0.8-1.2-0.8L71.9,11l-0.2,2.2l0.2,0c0.5,0,0.8-0.1,1-0.6l0.1-0.1l0.5,0
				l-0.2,2.4l-0.5,0l-0.1-0.2c-0.1-0.5-0.4-0.7-0.9-0.8l-0.2,0l-0.2,1.9l0.8,0.4l0,0.4l-3.7-0.4l0-0.4l0.8-0.2l0.5-4.6l-0.8-0.3
				l0-0.4l5.8,0.6L74.9,13L74.5,13z"/>
			<path fill="#FFFFFF" d="M79.3,17.5l-0.1,0.4L75.7,17l0.1-0.4l0.9-0.1l1.1-4.5L77,11.6l0.1-0.4l3.6,0.9l-0.1,0.4l-0.9,0.1L78.6,17
				L79.3,17.5z"/>
			<path fill="#FFFFFF" d="M83.4,13.7l-0.6-0.6l0.2-0.4l2.8,1.2l0.2,1.2l0.5,3.4l0.1,0l1.2-2.9l-0.7-0.7l0.2-0.4l2.5,1l-0.2,0.4
				l-1,0.1l-2,4.8L84.7,20l-0.2-1.3L83.9,15L83.8,15l-1.3,3.1l0.7,0.7L83,19.2l-2.5-1l0.2-0.4l1-0.1L83.4,13.7z"/>
			<path fill="#FFFFFF" d="M91.7,23.3l-0.2,0.4l-3.1-1.9l0.2-0.4l0.9,0.2l2.4-4L91.3,17l0.2-0.4l3.1,1.9l-0.2,0.4l-0.9-0.2l-2.4,4
				L91.7,23.3z"/>
			<path fill="#FFFFFF" d="M94.8,26.3c-0.5-0.4-1-1-1.3-1.5L93,24.9l-0.4-0.3l1.3-1.8l0.5,0.4c-0.2,1.4,0,2.1,0.6,2.6
				c0.4,0.3,0.9,0.3,1.2,0c0.3-0.4,0.1-0.7-0.3-1.3c-0.2-0.3-0.5-0.7-0.7-1c-0.4-0.7-0.6-1.4,0-2.2c0.8-1,2.2-0.9,3.1-0.2
				c0.5,0.4,0.8,0.8,1.1,1.3l0.4-0.1l0.4,0.3l-1.1,1.7l-0.6-0.4c0.2-1.2,0-1.8-0.5-2.2c-0.4-0.3-0.8-0.2-1.1,0
				c-0.3,0.3-0.2,0.6,0.1,1.2c0.2,0.3,0.5,0.7,0.7,1.1c0.4,0.7,0.7,1.5,0.1,2.3C97.1,27.3,95.7,27.1,94.8,26.3z"/>
			<path fill="#FFFFFF" d="M106.6,33.2l0.3-1.2c0.2-0.8,0.3-1.1,0-1.4l-0.1-0.1l-3.6,3.1l0.4,0.8l-0.3,0.3l-2.4-2.8l0.3-0.3L102,32
				l3.6-3.1l-0.1-0.1c-0.3-0.3-0.6-0.3-1.4-0.2l-1.2,0.1l-0.2-0.3l2.1-1.5l4,4.7l-1.8,1.8L106.6,33.2z"/>
			<path fill="#FFFFFF" d="M111.4,39.4l-0.3-0.3l0.4-1.1c0.2-0.5,0.2-0.9-0.1-1.4L111,36l-1.7,1.1l0.1,0.2c0.3,0.4,0.6,0.5,1.1,0.4
				l0.2,0l0.3,0.4l-2,1.3l-0.3-0.4l0.1-0.2c0.3-0.4,0.3-0.8,0.1-1.2l-0.1-0.2l-1.7,1.1l0.6,0.9c0.2,0.4,0.7,0.6,1.1,0.6l1.2,0.1
				l0.2,0.4l-1.9,1l-3.3-5l0.4-0.2l0.7,0.5l3.9-2.6l-0.2-0.8l0.4-0.2l3.2,4.8L111.4,39.4z"/>
			<path fill="#FFFFFF" d="M113.5,45.4l-0.1,0.1c0.3,0.8,0.3,1.3-0.2,1.8c-0.5,0.5-0.6,0.6-0.7,0.9c-0.1,0.2-0.1,0.4-0.1,0.7
				l-0.4,0.2l-0.7-1.4c-0.3-0.5-0.2-0.9,0.4-1.5l0.6-0.7c0.4-0.4,0.4-0.7,0.1-1.2l0-0.1l-1.7,0.8l0.1,0.8l-0.3,0.2l-1.6-3.2l0.4-0.2
				l0.6,0.6l4.2-2.1l-0.1-0.8l0.4-0.2l1.8,3.7c0.6,1.3,0.5,2.2-0.4,2.6C115.1,46.8,114.3,46.6,113.5,45.4z M115.1,43.2l-0.2-0.4
				l-2,1l0.2,0.3c0.3,0.6,0.8,0.9,1.5,0.5C115.3,44.4,115.4,43.9,115.1,43.2z"/>
			<path fill="#FFFFFF" d="M116.6,53.1l-0.1,0.1c0.2,0.8,0.1,1.3-0.5,1.8c-0.5,0.4-0.6,0.5-0.8,0.8c-0.1,0.2-0.1,0.4-0.1,0.7
				l-0.4,0.1l-0.5-1.5c-0.2-0.6-0.1-1,0.6-1.5l0.7-0.6c0.4-0.4,0.5-0.6,0.3-1.2l0-0.1l-1.8,0.6l0,0.8l-0.4,0.1l-1.2-3.4l0.4-0.1
				l0.5,0.7l4.4-1.5l0-0.9l0.4-0.1l1.4,3.9c0.5,1.4,0.2,2.2-0.7,2.5C118,54.6,117.2,54.3,116.6,53.1z M118.4,51.1l-0.1-0.4l-2.1,0.7
				l0.1,0.4c0.2,0.6,0.7,1,1.5,0.7C118.5,52.3,118.7,51.8,118.4,51.1z"/>
			<path fill="#FFFFFF" d="M115.9,58.5l-0.2,0.8l-0.4,0.1l-0.6-2.4l0.4-0.1l0.6,0.7l5.6,0.8l0.4,1.6l-4.8,3.1l-0.2,0.8l-0.4,0.1
				l-0.7-3.3l0.4-0.1l0.4,0.6l0.9-0.5l-0.5-2.1L115.9,58.5z M119.9,59l0-0.1l-2.3-0.2l0.4,1.6L119.9,59z"/>
			<path fill="#FFFFFF" d="M121,70.3l-0.1-0.4l0.8-0.8c0.4-0.3,0.5-0.7,0.5-1.3l-0.1-0.8l-2,0.2l0,0.2c0.1,0.5,0.3,0.7,0.8,0.9
				l0.2,0l0.1,0.5l-2.4,0.3l-0.1-0.5l0.2-0.1c0.4-0.2,0.6-0.5,0.6-1l0-0.2l-2.1,0.2l0.1,1c0.1,0.4,0.3,0.8,0.7,1.1l1,0.7l0,0.4
				l-2.1,0l-0.7-5.9l0.4,0l0.4,0.8l4.6-0.5l0.2-0.8l0.4,0l0.7,5.7L121,70.3z"/>
		</g>
	</g>
</g>
<g>
</g>
<g>
</g>
<g>
</g>
<g>
</g>
<g>
</g>
<g>
</g>
</svg>
